<svg version="1.0" xmlns="http://www.w3.org/2000/svg"
 width="300.000000pt" height="521.000000pt" viewBox="0 0 300.000000 521.000000"
 preserveAspectRatio="xMidYMid meet">
<metadata>
Created by potrace 1.10, written by Peter Selinger 2001-2011
</metadata>
<g transform="translate(0.000000,521.000000) scale(0.100000,-0.100000)"
fill="#000000" stroke="none">
<path d="M403 5178 c1 -39 -10 -188 -20 -273 -4 -33 -8 -73 -8 -90 -1 -16 -3
-32 -4 -35 -4 -12 -13 -158 -12 -193 1 -29 -2 -37 -11 -31 -10 6 -10 4 0 -9 8
-9 11 -21 7 -27 -3 -5 -2 -10 3 -10 5 0 12 39 16 88 12 166 25 327 30 372 13
123 17 240 9 240 -6 0 -10 -15 -10 -32z"/>
<path d="M1130 5133 c0 -42 2 -74 4 -72 9 9 14 149 5 149 -5 0 -9 -34 -9 -77z"/>
<path d="M1376 5143 c8 -47 13 -52 25 -31 5 9 33 22 61 29 29 7 47 14 40 17
-7 2 -33 -3 -59 -12 -51 -18 -53 -17 -56 13 -1 11 -5 21 -10 21 -4 0 -5 -17
-1 -37z"/>
<path d="M1881 5121 c-1 -37 -3 -42 -16 -31 -9 7 -15 8 -15 2 0 -5 7 -12 15
-16 10 -3 15 -19 15 -46 0 -22 4 -40 8 -40 4 0 6 33 4 73 -4 88 -9 118 -11 58z"/>
<path d="M1199 5094 c-1 -5 0 -20 0 -35 2 -18 -5 -29 -23 -39 -14 -7 -24 -15
-21 -18 2 -3 11 1 20 8 17 14 29 8 30 -18 4 -55 6 -63 15 -57 5 3 7 11 5 18
-2 7 -6 41 -9 75 -4 56 -14 93 -17 66z"/>
<path d="M1626 5028 c4 -6 -2 -8 -17 -3 -19 5 -21 4 -9 -4 9 -7 10 -11 3 -11
-6 0 -15 5 -18 10 -4 7 -12 7 -25 0 -10 -5 -27 -7 -37 -4 -10 3 -8 -1 6 -9 13
-8 34 -13 47 -11 13 1 24 -1 24 -5 0 -4 7 -8 15 -8 10 0 12 4 5 12 -7 8 -2 12
20 12 16 0 27 -4 24 -9 -3 -4 9 -8 25 -8 17 0 31 -5 31 -11 0 -8 5 -8 15 1 14
11 19 7 16 -12 0 -4 5 -5 12 -2 7 2 21 -4 31 -15 10 -11 22 -18 26 -16 4 3 11
-6 14 -20 3 -13 15 -29 26 -35 11 -6 18 -15 15 -21 -4 -5 4 -22 17 -38 38 -47
63 -83 63 -92 0 -4 6 -14 13 -20 14 -15 16 -33 2 -24 -6 4 -5 -4 1 -19 7 -14
15 -23 20 -21 4 3 22 -22 41 -55 18 -33 36 -60 40 -60 13 0 0 60 -17 76 -9 10
-13 25 -10 38 5 18 4 19 -7 5 -11 -14 -15 -12 -29 17 -9 19 -12 31 -7 28 5 -3
-4 18 -19 48 -15 29 -31 54 -35 56 -5 2 -8 11 -8 20 0 8 -3 12 -6 9 -4 -4 -17
14 -29 38 -12 25 -24 42 -28 39 -4 -4 -12 7 -18 24 -6 18 -14 30 -18 27 -5 -2
-18 7 -29 20 -12 14 -31 25 -42 25 -12 0 -20 7 -20 16 0 13 -3 14 -15 4 -8 -6
-20 -8 -27 -4 -7 5 -17 9 -23 10 -5 1 -22 4 -38 7 -18 4 -25 2 -21 -5z"/>
<path d="M1476 4989 c-16 -5 -34 -5 -39 -2 -6 3 -7 1 -3 -5 5 -8 -1 -12 -14
-12 -12 0 -19 -4 -16 -9 3 -4 -15 -21 -39 -37 -25 -15 -45 -32 -45 -37 0 -4
-4 -6 -9 -2 -6 3 -37 -22 -71 -56 -33 -33 -52 -58 -41 -54 11 3 23 0 27 -6 4
-8 3 -9 -4 -5 -16 10 -54 -12 -46 -26 4 -7 3 -8 -4 -4 -7 4 -12 2 -12 -4 0 -6
-5 -8 -10 -5 -6 4 -10 3 -9 -2 4 -15 -13 -43 -22 -37 -5 3 -6 -2 -3 -10 4 -11
0 -14 -16 -11 -17 3 -19 1 -11 -9 8 -9 -1 -23 -34 -56 -24 -24 -42 -47 -40
-51 8 -12 -7 -39 -18 -32 -6 3 -7 1 -3 -5 3 -6 -7 -26 -24 -45 -16 -19 -30
-39 -30 -45 0 -5 -7 -15 -15 -22 -9 -7 -14 -19 -11 -26 3 -7 0 -16 -6 -20 -7
-5 -8 -2 -3 6 5 9 4 11 -4 6 -6 -4 -9 -11 -7 -14 2 -4 -9 -26 -25 -50 -16 -23
-29 -47 -29 -52 0 -6 -4 -10 -10 -10 -5 0 -9 -5 -7 -12 1 -7 -4 -13 -10 -14
-7 -1 -16 -2 -20 -3 -3 0 2 -11 13 -23 10 -13 15 -20 10 -16 -10 8 -36 -15
-36 -31 0 -6 -4 -11 -10 -11 -5 0 -10 -8 -10 -18 0 -9 -16 -41 -35 -69 -19
-29 -35 -59 -35 -66 0 -8 -7 -20 -15 -27 -9 -7 -13 -15 -11 -18 3 -2 -6 -22
-20 -44 -14 -22 -20 -37 -14 -33 8 5 7 0 -1 -13 -7 -12 -18 -18 -24 -15 -5 3
-4 0 2 -7 10 -11 8 -20 -8 -46 -11 -18 -22 -43 -24 -55 -2 -12 -11 -29 -20
-39 -8 -9 -12 -19 -9 -23 3 -3 -6 -25 -20 -50 -28 -47 -35 -73 -11 -41 13 18
14 18 8 -5 -5 -21 -3 -23 13 -17 16 6 16 4 -4 -14 -12 -11 -23 -25 -23 -30 -1
-6 -2 -18 -3 -27 -1 -10 -12 -40 -26 -68 -14 -27 -25 -52 -25 -55 -6 -39 -73
-107 -163 -163 -23 -15 -42 -31 -42 -36 0 -5 -14 -11 -31 -15 -17 -3 -28 -10
-24 -16 7 -11 -14 -15 -55 -11 -20 2 -23 0 -13 -10 18 -18 -35 -41 -57 -25
-13 9 -13 9 -3 -5 15 -18 8 -29 -19 -29 -11 0 -17 -4 -13 -9 3 -5 -4 -12 -15
-16 -11 -3 -20 -11 -20 -16 0 -14 38 -1 73 23 15 11 27 17 27 14 0 -3 9 3 20
14 12 12 26 18 32 14 6 -4 8 -3 4 4 -3 6 9 15 31 23 102 33 337 253 324 303
-1 4 5 18 12 30 8 11 13 35 12 51 -2 17 -1 24 2 17 3 -6 9 -10 14 -6 15 9 10
24 -8 24 -14 0 -14 2 -1 18 8 9 14 31 14 49 -1 17 1 30 4 28 3 -2 18 17 33 41
15 25 22 42 16 38 -13 -8 -12 -6 29 61 16 25 19 35 9 26 -15 -11 -17 -11 -17
2 0 8 7 20 15 27 8 7 15 18 15 25 0 8 12 28 27 47 21 25 22 28 5 14 -31 -27
-27 -10 13 57 19 32 31 55 25 52 -6 -4 0 9 12 27 41 60 66 88 78 88 6 0 8 5 4
11 -3 6 8 30 25 54 33 46 58 100 41 90 -16 -10 -12 2 16 42 14 21 30 38 36 38
5 0 15 8 22 17 7 10 16 15 19 11 4 -3 4 4 2 16 -2 13 2 24 10 27 7 3 18 19 24
36 9 26 9 29 -4 18 -8 -7 -13 -16 -10 -20 3 -5 1 -11 -4 -15 -17 -10 -2 39 17
55 10 8 24 29 32 45 8 17 32 45 52 64 21 18 38 40 38 47 0 8 4 14 9 14 5 0 11
9 14 20 3 13 10 18 21 14 12 -5 15 -2 9 12 -5 13 -3 15 7 9 9 -5 11 -4 6 3 -4
7 4 24 18 40 14 15 42 46 62 70 20 23 43 42 50 42 8 0 14 5 14 11 0 5 5 7 10
4 6 -3 10 3 10 13 0 13 9 22 26 26 15 4 33 14 41 22 8 7 24 12 36 10 12 -1 15
-1 7 2 -9 3 1 10 25 16 31 9 36 13 20 17 -11 3 -33 2 -49 -2z m-501 -576 c-2
-22 -25 -66 -31 -60 -4 4 23 77 29 77 2 0 3 -8 2 -17z"/>
<path d="M2019 4940 c-5 -58 -4 -70 9 -54 4 5 5 32 2 59 l-6 50 -5 -55z"/>
<path d="M1040 4915 c-7 -8 -18 -15 -25 -15 -9 0 -12 -26 -10 -107 2 -78 -1
-113 -10 -127 -19 -27 -156 -166 -164 -166 -3 0 -5 37 -3 83 2 45 1 79 -3 75
-4 -4 -9 -53 -12 -110 -2 -57 -6 -109 -8 -116 -3 -7 0 -10 5 -7 6 3 10 15 10
27 0 22 166 198 184 195 7 -1 11 38 12 116 2 108 4 120 25 143 12 13 20 24 17
24 -3 0 -11 -7 -18 -15z"/>
<path d="M2156 4852 c-6 -9 -6 -95 0 -89 2 2 6 25 10 50 5 44 2 57 -10 39z"/>
<path d="M2061 4844 c-1 -5 19 -34 44 -62 27 -33 42 -59 39 -70 -3 -10 0 -9 6
4 10 17 6 26 -27 60 -21 23 -43 49 -50 60 -6 10 -12 14 -12 8z"/>
<path d="M824 4829 c-4 -7 -8 -32 -8 -57 -1 -45 -3 -47 -81 -109 -44 -35 -88
-66 -97 -69 -13 -5 -17 -20 -17 -82 0 -53 3 -72 9 -62 5 8 10 40 10 72 l0 56
75 56 c41 31 77 61 80 66 11 17 25 11 27 -12 1 -13 4 15 8 62 6 92 6 98 -6 79z"/>
<path d="M2704 4779 c4 -13 9 -48 13 -76 3 -29 10 -50 15 -47 5 3 6 20 3 36
-5 21 -3 33 6 39 11 7 10 9 -3 9 -12 0 -18 8 -18 24 0 14 -5 28 -12 32 -8 5
-9 0 -4 -17z"/>
<path d="M2310 4688 c0 -58 -3 -113 -6 -122 -3 -9 -1 -16 5 -16 7 0 11 23 11
60 l0 60 53 1 c28 1 66 5 82 9 17 5 -5 6 -52 3 l-82 -6 3 45 c2 25 0 52 -5 59
-5 9 -9 -29 -9 -93z"/>
<path d="M2507 4750 c4 -30 2 -45 -8 -51 -10 -6 -10 -9 -1 -9 6 0 12 -12 13
-27 0 -16 4 -37 9 -48 6 -13 8 10 6 68 -2 49 -8 93 -14 99 -7 7 -9 -2 -5 -32z"/>
<path d="M2896 4720 c4 -25 2 -30 -8 -25 -10 6 -11 5 0 -6 6 -7 12 -26 12 -42
0 -15 4 -26 9 -22 11 6 3 105 -10 119 -4 5 -5 -6 -3 -24z"/>
<path d="M628 4670 c-2 -22 0 -47 4 -57 4 -10 7 6 7 40 1 66 -5 76 -11 17z"/>
<path d="M1560 4645 c-67 -15 -114 -33 -87 -34 10 -1 16 -5 13 -9 -3 -5 16 2
41 15 48 24 97 30 108 14 3 -6 14 -9 25 -8 10 1 17 5 14 9 -3 4 -11 5 -19 1
-8 -3 -15 -1 -15 5 0 17 -23 19 -80 7z"/>
<path d="M1385 4604 c-27 -20 -54 -41 -60 -47 -7 -8 -6 -8 5 0 8 6 23 9 33 8
9 -2 15 1 12 5 -5 8 18 29 61 57 11 6 15 12 9 12 -5 0 -32 -16 -60 -35z"/>
<path d="M2900 4573 c0 -21 -3 -69 -5 -108 -3 -43 -2 -62 3 -50 8 17 12 15 37
-23 15 -23 30 -42 32 -42 6 0 -5 19 -35 59 -24 32 -26 42 -23 118 1 46 0 83
-3 83 -3 0 -6 -17 -6 -37z"/>
<path d="M2498 4559 c-15 -16 -34 -29 -42 -29 -8 0 -17 -7 -20 -16 -9 -24 -7
-28 9 -14 8 6 20 8 26 4 8 -4 9 -3 5 4 -7 12 -6 13 33 17 13 1 27 9 32 16 7
11 9 11 9 -3 0 -9 5 -20 12 -24 7 -4 8 -3 4 4 -4 7 -2 12 3 12 6 0 11 -4 11
-9 0 -5 9 -7 20 -4 11 3 20 0 20 -6 0 -7 9 -9 25 -5 20 5 24 3 20 -9 -6 -14
25 -31 51 -28 6 1 11 -6 11 -14 0 -8 -5 -15 -10 -15 -5 0 2 -9 16 -20 15 -12
24 -27 20 -35 -3 -8 0 -15 6 -15 6 0 11 -5 11 -11 0 -6 9 -22 20 -36 11 -15
18 -29 14 -32 -3 -3 -14 5 -26 19 -13 16 -18 19 -14 8 3 -10 1 -18 -4 -18 -6
0 -10 -5 -10 -11 0 -5 5 -7 10 -4 9 5 15 -24 11 -49 -1 -5 3 -12 9 -16 13 -8
30 -120 18 -120 -4 0 -8 -5 -8 -11 0 -5 5 -7 11 -3 7 4 7 -1 -1 -16 -7 -13
-10 -40 -7 -61 3 -22 2 -37 -3 -34 -4 3 -10 -9 -12 -25 -5 -32 8 -42 15 -12 2
9 6 -11 8 -45 3 -40 1 -58 -6 -53 -6 5 -10 -7 -9 -33 1 -23 -5 -82 -13 -132
-7 -49 -12 -102 -10 -117 2 -16 0 -28 -5 -28 -4 0 -8 -27 -8 -59 0 -33 -4 -62
-8 -65 -5 -3 -7 -19 -4 -37 3 -20 1 -30 -6 -25 -5 3 -12 -1 -16 -9 -3 -8 -2
-15 3 -15 4 0 6 -11 4 -25 -3 -13 -10 -23 -17 -22 -6 1 -10 -10 -9 -26 1 -15
-2 -25 -8 -22 -5 4 -10 -11 -11 -32 -2 -48 -6 -87 -8 -93 -5 -15 -8 -40 -4
-40 2 0 10 15 18 33 14 31 14 31 16 7 7 -82 11 -148 12 -167 0 -13 4 -21 8
-18 4 3 10 -2 14 -10 6 -16 -9 -29 -24 -20 -5 3 -7 0 -4 -9 3 -9 12 -12 22 -9
11 5 14 2 9 -10 -4 -10 -2 -17 4 -17 6 0 9 -9 6 -20 -3 -11 3 -30 15 -45 10
-14 17 -29 13 -34 -3 -6 3 -14 12 -20 17 -10 17 -10 -2 -11 -14 -1 -16 -3 -5
-7 28 -11 42 -26 30 -33 -8 -5 -7 -9 4 -13 9 -4 15 -3 13 1 -6 18 17 11 29
-10 71 -121 91 -201 59 -228 -12 -10 -19 -8 -36 11 l-20 24 16 -27 c15 -25 15
-27 -4 -33 -12 -3 -21 -10 -21 -15 0 -5 -6 -8 -12 -6 -7 1 -10 1 -5 -1 13 -8
7 -23 -10 -24 -10 0 -13 -3 -6 -5 8 -4 7 -11 -5 -23 -9 -10 -21 -16 -26 -13
-5 3 -6 -1 -1 -8 6 -10 4 -12 -8 -7 -11 4 -14 2 -10 -9 4 -10 1 -14 -8 -12 -8
2 -14 0 -14 -3 0 -12 -27 -39 -35 -34 -5 3 -12 0 -16 -6 -4 -8 -3 -9 4 -5 7 4
12 2 12 -3 0 -6 -4 -11 -9 -11 -5 0 -14 -13 -21 -30 -7 -17 -17 -27 -24 -23
-6 3 -7 2 -3 -2 4 -5 -1 -14 -11 -19 -19 -11 -19 -11 0 -31 11 -11 19 -15 18
-10 -6 30 1 38 16 19 14 -18 15 -18 4 3 -8 18 -7 29 6 50 20 32 133 143 146
143 4 0 8 6 8 13 0 6 24 33 54 59 48 42 54 52 58 96 3 32 12 56 26 70 12 12
22 28 21 35 0 6 -5 2 -11 -10 -11 -23 -28 -31 -28 -13 0 5 -31 43 -70 84 -98
103 -135 192 -161 385 -7 47 -15 90 -19 94 -4 4 -4 27 1 50 4 23 5 46 2 51 -4
5 -1 6 5 2 8 -5 12 2 13 21 2 34 3 43 11 63 12 30 20 66 25 125 3 33 9 62 14
65 4 3 8 24 7 46 0 23 5 72 11 110 10 63 19 140 24 219 2 17 5 35 8 40 8 13 3
101 -7 116 -5 8 -9 7 -16 -2 -8 -11 -9 -11 -5 1 2 8 11 14 20 12 12 -2 15 2
10 14 -5 13 -3 15 8 10 8 -4 5 0 -5 8 -11 9 -14 16 -8 16 8 0 11 19 11 55 -1
30 -6 55 -10 55 -5 0 -9 5 -9 11 0 5 5 7 10 4 6 -4 2 9 -9 29 -18 32 -19 36
-5 44 15 8 15 12 0 40 -9 18 -14 32 -10 32 4 0 0 8 -7 17 -11 13 -11 15 -1 9
11 -7 11 -4 1 12 -7 12 -23 26 -36 33 -17 9 -20 15 -11 21 10 6 10 8 1 8 -7 0
-10 7 -6 17 5 12 2 15 -10 10 -12 -5 -18 0 -23 18 -3 14 -11 22 -19 19 -7 -3
-15 2 -19 12 -5 14 -9 14 -23 3 -14 -12 -16 -12 -9 0 7 10 3 12 -14 6 -20 -6
-22 -4 -17 14 4 18 2 20 -21 15 -15 -3 -40 -10 -56 -15 -25 -8 -27 -7 -16 6
24 29 5 24 -22 -6z"/>
<path d="M462 4557 c-2 -35 -23 -57 -54 -58 -13 -1 -6 -5 17 -9 22 -4 41 -7
43 -5 2 2 1 25 -1 51 -2 27 -4 36 -5 21z"/>
<path d="M1747 4553 c3 -10 10 -24 16 -30 12 -17 -5 -17 -21 -1 -9 9 -12 8
-12 -5 0 -9 -5 -17 -11 -17 -5 0 -7 -5 -3 -11 4 -7 9 -8 13 -1 8 13 46 19 48
8 2 -13 26 -26 35 -20 5 3 -2 14 -16 25 -14 11 -26 29 -28 41 -2 12 -9 23 -16
26 -8 2 -10 -2 -5 -15z"/>
<path d="M2402 4550 c-12 -11 -24 -20 -28 -20 -3 0 -19 -9 -35 -21 -27 -19
-29 -19 -30 -2 0 10 -3 13 -6 5 -2 -6 -8 -10 -13 -7 -5 3 -11 -4 -15 -15 -3
-11 -11 -20 -17 -20 -5 0 -8 7 -5 15 7 18 -9 30 -16 13 -4 -10 -8 -10 -15 1
-8 11 -10 11 -15 0 -5 -12 -7 -12 -15 0 -7 9 -12 10 -16 2 -10 -16 -26 -14
-26 4 0 9 -6 12 -15 9 -9 -4 -15 0 -15 9 0 8 -6 20 -14 26 -11 9 -15 7 -18 -7
-11 -42 101 -96 124 -60 5 9 8 8 8 -6 0 -11 5 -16 14 -13 7 3 18 1 23 -4 5 -5
19 -3 33 5 14 7 31 11 37 9 7 -3 19 7 29 22 19 29 31 27 15 -3 -9 -17 -8 -19
9 -15 10 3 26 16 35 29 16 25 8 33 -13 12 -22 -22 -13 5 10 29 26 28 20 30
-10 3z"/>
<path d="M65 4539 c39 -14 116 -19 109 -8 -3 5 -17 9 -32 8 -15 -1 -45 1 -67
4 -37 6 -38 6 -10 -4z"/>
<path d="M303 4501 c-5 -3 -9 -15 -10 -26 -1 -11 0 -14 3 -7 3 6 21 12 40 12
19 0 34 4 34 9 0 10 -56 20 -67 12z"/>
<path d="M1583 4481 c-9 -11 -21 -17 -27 -14 -6 3 -8 3 -4 -1 4 -5 -2 -17 -12
-28 -10 -12 -24 -35 -30 -52 l-11 -31 30 35 c17 19 30 38 31 42 0 4 14 21 31
38 18 16 27 30 20 30 -6 0 -19 -9 -28 -19z"/>
<path d="M42 4443 c-1 -23 -5 -50 -8 -60 -5 -14 -4 -15 5 -7 8 7 11 30 8 60
-3 48 -3 48 -5 7z"/>
<path d="M345 4435 c-4 -22 -9 -78 -11 -125 -2 -47 -5 -110 -8 -140 -2 -30 -6
-107 -10 -170 -5 -110 -8 -140 -22 -310 -3 -41 -7 -113 -9 -160 -6 -134 -14
-231 -20 -250 -3 -10 -21 -30 -40 -45 l-35 -26 -2 53 -1 53 -6 -50 -6 -50 -88
-45 c-48 -24 -87 -50 -87 -58 0 -8 3 -12 8 -10 47 22 224 114 248 129 35 21
36 27 49 284 3 55 10 172 16 260 5 88 12 201 14 250 3 50 10 165 16 257 11
168 9 227 -6 153z"/>
<path d="M1740 4456 c20 -26 21 -48 3 -68 -15 -17 -15 -18 5 -18 15 0 20 5 16
15 -10 25 2 17 30 -20 17 -22 21 -32 11 -29 -11 5 -14 2 -9 -10 3 -9 17 -16
31 -16 16 0 22 -4 17 -12 -4 -6 -3 -8 3 -5 10 7 49 -52 45 -68 -2 -5 2 -5 9 2
9 9 8 15 -5 29 -10 9 -15 25 -13 36 3 10 1 15 -5 12 -11 -7 -87 74 -88 94 0 7
-4 10 -10 7 -5 -3 -10 2 -10 13 0 10 -10 27 -22 38 -21 18 -22 18 -8 0z"/>
<path d="M452 4388 c-2 -40 -5 -91 -8 -113 -2 -25 -1 -35 5 -27 4 8 9 39 10
70 0 32 4 76 7 100 3 23 2 42 -3 42 -5 0 -10 -33 -11 -72z"/>
<path d="M617 4417 c-6 -15 0 -97 7 -105 3 -3 6 22 6 56 0 61 -3 74 -13 49z"/>
<path d="M1132 4418 c-7 -7 -12 -18 -12 -26 0 -7 -5 -10 -10 -7 -6 4 -7 11 -4
17 5 7 2 8 -5 4 -7 -5 -10 -11 -7 -14 3 -3 -2 -14 -11 -25 -17 -20 -17 -20 0
-14 10 4 20 7 22 7 1 0 15 16 29 35 26 33 24 49 -2 23z"/>
<path d="M1770 4322 c0 -6 5 -14 10 -17 6 -3 10 -14 10 -23 1 -23 37 -65 50
-57 6 4 9 1 8 -7 -2 -7 6 -13 17 -14 13 -1 14 1 4 3 -11 3 -15 11 -12 24 3 12
0 19 -8 20 -8 0 -29 18 -46 41 -18 22 -33 35 -33 30z"/>
<path d="M601 4286 c-10 -12 -10 -16 -1 -16 7 0 10 -8 7 -20 -3 -11 -2 -20 3
-20 12 0 17 23 11 49 -6 21 -8 22 -20 7z"/>
<path d="M2680 4275 c0 -6 5 -16 10 -21 6 -6 8 -18 4 -28 -5 -13 -9 -14 -20
-5 -8 6 -11 16 -7 22 4 6 1 7 -6 3 -9 -6 -8 -12 4 -26 9 -10 14 -25 10 -32 -3
-7 1 -4 9 6 9 11 16 23 16 28 0 4 8 4 17 1 14 -6 15 -4 5 8 -7 8 -19 23 -27
34 -8 11 -15 15 -15 10z"/>
<path d="M547 4250 c-14 -11 -30 -20 -35 -20 -5 0 -15 -7 -22 -15 -14 -17 -33
-15 -42 5 -5 11 -7 8 -9 -10 -1 -14 -3 -35 -4 -47 -1 -13 2 -23 6 -23 5 0 9
10 9 23 1 16 13 28 50 46 28 13 57 32 66 43 22 24 13 23 -19 -2z"/>
<path d="M2612 4213 c25 -49 42 -97 49 -138 l8 -50 -4 56 c-3 50 -36 139 -51
139 -3 0 -4 -3 -2 -7z"/>
<path d="M151 4154 c2 -31 3 -33 6 -11 4 26 7 27 41 21 20 -4 47 -11 60 -15
19 -7 22 -5 22 14 0 13 -3 17 -8 10 -7 -11 -65 -5 -104 12 -16 6 -18 2 -17
-31z"/>
<path d="M1873 4173 c20 -5 22 -19 5 -29 -6 -4 -14 -2 -16 4 -2 7 -16 12 -30
11 l-27 -1 25 -11 c47 -22 52 -28 39 -43 -8 -10 -8 -14 0 -14 11 0 15 13 12
37 -1 6 12 17 29 25 29 13 30 13 8 20 -13 3 -32 6 -43 6 -16 0 -17 -1 -2 -5z"/>
<path d="M2294 4164 c-10 -8 -13 -12 -6 -9 8 4 25 -6 43 -24 16 -17 29 -27 29
-22 0 5 -7 17 -16 25 -14 15 -11 20 9 17 4 0 7 7 7 16 0 13 -3 14 -12 5 -7 -7
-19 -12 -27 -12 -14 0 -14 1 -1 10 8 5 10 10 4 10 -5 0 -19 -7 -30 -16z"/>
<path d="M2265 4130 c-4 -6 -11 -8 -16 -5 -14 9 -11 -9 7 -41 l15 -29 -6 33
c-5 25 -3 32 9 32 9 0 16 5 16 10 0 13 -17 13 -25 0z"/>
<path d="M170 4118 c3 -2 20 -15 38 -27 24 -17 32 -19 32 -8 0 8 -8 17 -17 20
-10 2 -27 8 -38 12 -11 5 -18 6 -15 3z"/>
<path d="M1956 4107 c3 -8 -8 -25 -25 -40 -29 -24 -43 -46 -22 -33 5 4 11 3
14 -1 2 -5 3 -3 2 2 -2 15 28 40 45 39 8 -1 23 -2 33 -3 15 -1 17 -6 12 -30
-4 -17 -2 -32 5 -36 7 -4 9 -20 5 -38 -5 -27 -4 -29 5 -14 7 11 9 29 4 45 -4
15 -6 39 -5 55 2 19 -2 27 -13 27 -9 0 -16 7 -16 15 0 8 -4 15 -10 15 -5 0 -9
-5 -7 -11 1 -6 -4 -14 -11 -16 -7 -3 -10 1 -6 10 3 8 1 18 -5 22 -6 3 -9 0 -5
-8z"/>
<path d="M1876 4078 c-16 -16 -24 -28 -18 -28 6 0 14 5 17 10 4 6 11 8 16 5 5
-4 9 -1 9 5 0 6 10 14 22 19 20 7 20 8 2 12 -11 3 -30 -7 -48 -23z"/>
<path d="M2146 4064 c-4 -9 -9 -14 -13 -11 -7 8 -33 -11 -33 -23 0 -4 7 -11
16 -14 14 -5 15 -4 5 8 -7 9 -8 17 -2 20 5 3 14 -6 19 -21 l10 -28 1 25 c1 20
3 22 11 10 8 -11 9 -7 4 15 -9 38 -10 40 -18 19z"/>
<path d="M2080 4053 c0 -16 -2 -16 -11 -3 -9 12 -10 12 -5 -4 4 -10 2 -24 -4
-31 -7 -8 -5 -12 5 -12 8 0 12 4 9 8 -2 4 0 10 6 14 5 3 15 15 20 26 9 15 7
19 -5 19 -8 0 -15 -8 -15 -17z"/>
<path d="M1957 4053 c-2 -5 -3 -16 -2 -25 2 -10 -1 -18 -6 -18 -6 0 -8 -4 -5
-8 2 -4 1 -14 -4 -22 -7 -12 -11 -10 -18 9 -7 20 -10 21 -15 8 -4 -10 -2 -17
4 -17 6 0 9 -7 6 -15 -4 -8 -2 -17 4 -20 5 -4 6 -11 3 -17 -4 -7 -2 -8 5 -4 6
4 10 13 9 19 -1 7 6 27 15 44 10 18 17 35 17 38 -1 21 2 24 18 19 14 -5 15 -4
2 5 -18 13 -27 14 -33 4z"/>
<path d="M1271 4034 c-18 -8 -31 -17 -28 -20 9 -9 55 8 61 22 3 8 4 14 3 13
-1 0 -17 -7 -36 -15z"/>
<path d="M1881 4043 c-1 -7 -10 -13 -21 -13 -11 0 -20 -5 -20 -10 0 -6 -9 -14
-19 -18 -16 -6 -17 -9 -5 -20 11 -10 14 -10 14 1 0 8 7 20 15 27 13 11 14 10
9 -6 -6 -17 -5 -17 16 2 12 12 20 28 17 35 -4 10 -6 10 -6 2z"/>
<path d="M2691 4013 c0 -25 1 -26 9 -8 11 26 12 3 1 -52 -6 -33 -5 -40 6 -36
10 4 12 14 8 34 -4 17 -2 29 4 29 5 0 9 14 9 30 -1 22 -6 30 -20 30 -13 0 -18
-7 -17 -27z"/>
<path d="M1181 3999 c-34 -13 -24 -16 39 -11 40 3 50 7 35 13 -26 10 -45 10
-74 -2z"/>
<path d="M1335 3984 c28 -7 55 -12 60 -10 17 6 -45 26 -78 25 -28 -1 -26 -2
18 -15z"/>
<path d="M1106 3981 c2 -2 -1 -10 -7 -17 -7 -8 -7 -14 1 -19 13 -8 42 13 35
25 -3 5 1 10 7 13 7 2 1 4 -14 3 -14 0 -24 -3 -22 -5z"/>
<path d="M1160 3960 c-18 -15 -20 -18 -6 -13 12 4 17 3 13 -4 -4 -6 -22 -14
-40 -17 -22 -4 -44 -19 -63 -43 -52 -65 -88 -101 -127 -127 -48 -33 -52 -33
-20 2 14 15 29 26 33 25 5 -1 14 5 22 14 9 12 9 15 1 9 -7 -4 -13 -3 -13 3 0
5 29 36 65 69 36 33 61 63 56 66 -6 4 -15 -2 -21 -13 -6 -12 -18 -18 -29 -16
-22 4 -56 -29 -56 -54 0 -22 -15 -42 -26 -36 -5 3 -6 -1 -3 -9 3 -9 -2 -17
-15 -21 -12 -3 -19 -10 -16 -14 2 -5 -7 -18 -20 -31 -13 -13 -22 -27 -19 -32
3 -4 -6 -22 -20 -39 -14 -17 -26 -36 -26 -42 0 -7 8 -1 18 13 9 14 26 27 37
29 20 3 20 3 0 -20 -11 -13 2 -4 29 20 27 24 65 62 84 85 24 26 27 32 9 17
-15 -14 -29 -22 -33 -19 -3 3 15 22 40 43 25 20 44 42 43 48 -1 6 5 12 13 12
8 1 14 6 13 12 -1 6 4 17 12 23 8 7 15 9 15 5 0 -4 7 -2 15 5 8 7 21 10 30 6
8 -3 14 0 12 6 -1 6 3 12 9 15 6 2 11 -4 11 -13 0 -8 -11 -20 -23 -24 -23 -9
-30 -14 -94 -71 -19 -18 -27 -26 -18 -19 10 7 34 13 53 15 20 1 41 8 48 15 9
10 9 11 -1 6 -7 -4 -25 -9 -40 -12 l-27 -4 25 19 c13 11 27 18 31 15 4 -2 17
5 30 15 13 10 31 16 39 14 13 -4 13 -3 0 6 -16 11 -8 17 35 24 11 2 31 9 45
16 l25 12 -25 -6 c-70 -15 -84 -17 -77 -9 11 11 34 16 90 19 27 2 51 6 55 11
4 4 -1 4 -10 1 -10 -3 -20 -2 -23 3 -9 14 -69 6 -98 -13 -20 -13 -32 -15 -45
-8 -16 10 -16 10 1 11 9 0 17 5 17 10 0 15 -12 12 -40 -10z m-120 -55 c0 -1
-13 -14 -29 -29 -29 -28 -39 -15 -13 16 9 11 42 21 42 13z m-70 -153 c0 -4
-16 -24 -37 -43 -20 -18 -33 -28 -29 -21 8 13 -4 16 -20 5 -5 -5 9 9 31 29 40
37 55 45 55 30z"/>
<path d="M1828 3951 c-9 -10 -19 -29 -22 -42 -6 -22 -5 -21 18 6 14 17 26 36
26 43 0 16 -3 15 -22 -7z"/>
<path d="M2042 3945 c-13 -27 -27 -32 -35 -12 -3 7 -6 5 -6 -5 -1 -10 4 -18 9
-18 6 0 10 -4 10 -10 0 -5 -8 -10 -17 -10 -13 0 -14 -3 -5 -12 8 -8 9 -15 1
-25 -7 -7 -8 -13 -3 -13 5 0 -2 -7 -14 -16 -12 -8 -20 -19 -17 -24 3 -5 -2
-16 -11 -24 -8 -9 -12 -16 -7 -16 17 0 74 85 69 102 -2 10 -1 18 4 18 4 0 15
19 24 41 18 45 16 65 -2 24z"/>
<path d="M1370 3950 l-25 -8 25 -1 c22 -1 23 -3 8 -12 -12 -6 -24 -7 -36 0
-14 8 -19 6 -19 -5 0 -7 6 -14 14 -14 8 0 24 -7 36 -15 16 -10 27 -11 37 -4
13 9 13 10 0 8 -35 -4 -45 0 -32 13 7 7 20 13 29 13 9 0 18 7 20 15 4 12 3 13
-5 1 -11 -15 -36 -6 -27 10 4 5 5 9 3 8 -2 -1 -14 -5 -28 -9z"/>
<path d="M1298 3892 c4 -11 1 -14 -11 -9 -9 3 -17 2 -17 -3 0 -5 -20 -7 -44
-5 -32 3 -46 1 -50 -10 -4 -11 0 -12 18 -5 12 4 28 5 35 1 7 -5 -12 -18 -48
-34 -33 -15 -62 -31 -65 -36 -3 -4 22 5 55 21 35 17 64 26 68 21 3 -6 16 -15
28 -22 28 -14 71 -93 54 -99 -6 -2 -11 -8 -11 -14 0 -5 8 -7 18 -4 16 5 19 1
20 -28 1 -18 10 -55 20 -82 l19 -49 4 43 c4 39 -4 58 -13 31 -2 -7 -4 3 -4 22
-1 19 -8 50 -18 69 -32 67 -75 135 -85 135 -5 0 -13 3 -17 8 -4 4 0 7 8 7 9 0
21 7 28 15 13 15 53 12 77 -7 25 -20 83 -45 83 -37 0 5 -7 12 -15 15 -8 4 -13
10 -10 14 3 5 0 12 -6 16 -8 4 -9 3 -5 -4 11 -17 -6 -15 -34 6 -14 9 -39 22
-57 28 -27 9 -30 9 -25 -4z"/>
<path d="M1820 3882 c0 -7 3 -12 8 -13 4 0 17 -2 30 -3 25 -3 38 9 22 19 -6 4
-17 2 -24 -4 -9 -7 -16 -7 -24 1 -9 9 -12 9 -12 0z"/>
<path d="M1905 3881 c-3 -2 -5 -9 -5 -15 0 -6 5 -4 10 4 9 13 10 13 11 0 1 -8
1 -18 1 -21 -1 -3 14 -3 31 0 18 3 25 6 15 9 -9 2 -15 9 -12 16 4 11 -40 18
-51 7z"/>
<path d="M831 3846 c-12 -14 -12 -16 4 -10 15 6 16 4 7 -13 -6 -11 -9 -23 -6
-25 3 -3 -2 -8 -11 -12 -13 -5 -15 -1 -9 17 8 26 2 21 -16 -12 -10 -19 -10
-22 2 -16 7 3 6 1 -3 -7 -9 -7 -26 -33 -39 -58 -12 -25 -33 -59 -46 -76 -15
-21 -21 -39 -18 -55 5 -19 3 -21 -5 -9 -8 12 -10 11 -9 -5 1 -11 -9 -38 -23
-60 -13 -22 -32 -56 -41 -75 -14 -32 -14 -38 -1 -55 15 -19 15 -19 8 3 -4 14
0 31 13 50 11 15 21 32 22 37 7 23 31 72 50 100 23 34 26 49 8 39 -7 -4 2 7
20 23 23 21 29 33 20 36 -8 4 -7 6 5 6 9 1 17 6 17 12 0 5 -4 7 -10 4 -6 -3
-7 1 -4 9 3 9 10 14 14 11 4 -3 13 2 20 10 7 8 9 15 5 15 -5 0 0 9 10 20 10
11 14 20 9 20 -5 0 -1 5 9 11 9 5 17 19 17 30 0 11 4 18 8 15 5 -3 9 1 9 9 0
8 -4 12 -8 9 -4 -2 -9 1 -11 7 -2 7 -9 5 -17 -5z"/>
<path d="M1304 3851 c4 -5 2 -11 -4 -13 -6 -2 4 -19 22 -38 18 -19 33 -39 34
-45 0 -5 2 -18 2 -28 1 -10 6 -16 11 -12 5 3 17 -2 25 -11 33 -32 3 48 -32 89
-8 9 -12 20 -9 24 4 3 16 -4 27 -18 16 -17 23 -20 29 -11 10 16 23 1 39 -43
l11 -30 -3 34 c-3 34 -31 65 -48 55 -5 -4 -16 3 -24 15 -14 20 -16 20 -39 5
-25 -17 -30 -12 -26 24 1 6 -3 12 -9 12 -6 0 -9 -4 -6 -9z"/>
<path d="M2764 3832 c1 -18 -1 -35 -6 -38 -11 -7 -10 -24 1 -24 13 0 18 31 9
65 l-7 30 3 -33z"/>
<path d="M1200 3760 c-14 -11 -20 -20 -13 -20 6 0 15 5 18 10 12 19 66 11 86
-12 21 -27 25 -12 4 16 -20 27 -65 29 -95 6z"/>
<path d="M2463 3743 c9 -2 15 -9 11 -14 -3 -5 -10 -7 -15 -4 -5 4 -9 1 -9 -5
0 -8 -6 -7 -21 1 -15 8 -19 8 -15 0 5 -7 -2 -11 -18 -11 -14 0 -39 -13 -58
-30 -18 -16 -29 -30 -26 -30 4 0 19 11 34 25 22 20 34 24 57 19 20 -4 27 -3
23 5 -9 15 -5 14 33 -5 17 -8 29 -20 25 -25 -3 -6 -11 -5 -20 2 -12 10 -13 9
-7 -7 7 -18 6 -18 -21 -1 -22 15 -31 16 -40 6 -8 -9 -8 -10 1 -5 6 3 15 1 19
-5 5 -8 -3 -10 -27 -7 -36 6 -89 -17 -89 -38 0 -7 -5 -14 -12 -16 -19 -7 3
-30 23 -25 11 3 17 1 13 -4 -3 -5 -1 -9 5 -9 6 0 15 10 22 22 9 17 9 20 -2 16
-8 -3 -25 -8 -39 -12 -24 -7 -24 -6 -6 8 11 9 16 16 10 16 -5 1 2 10 15 20 16
14 27 17 36 10 6 -5 15 -7 18 -4 9 9 57 -5 57 -16 0 -5 -10 -6 -22 -2 -33 10
-83 9 -85 -3 -2 -5 5 -10 15 -10 9 0 16 -6 15 -12 -4 -17 13 -16 29 0 27 29
104 -19 84 -52 -3 -5 3 -7 14 -4 14 4 20 0 20 -11 0 -10 -4 -15 -9 -12 -13 9
-22 -23 -12 -42 18 -33 31 -133 21 -153 -8 -15 -7 -17 5 -13 8 4 15 9 16 13 5
44 4 68 -5 80 -9 12 -8 13 3 6 12 -7 13 -1 6 31 -4 21 -7 62 -6 89 1 38 -1 46
-9 35 -9 -11 -10 -7 -5 19 5 23 4 31 -4 27 -7 -5 -9 3 -5 24 6 27 4 30 -12 23
-17 -6 -17 -5 -5 10 17 21 -2 49 -27 40 -9 -3 -14 -3 -10 1 3 4 14 9 25 11 10
2 20 4 22 4 11 3 -24 31 -38 30 -13 -1 -13 -2 2 -6z m22 -130 c3 -18 10 -31
15 -28 6 3 7 -1 4 -9 -8 -21 -24 -10 -24 16 0 14 -5 18 -15 14 -9 -3 -15 0
-15 9 0 8 -7 18 -16 23 -12 6 -8 9 14 9 27 0 31 -5 37 -34z"/>
<path d="M1255 3705 c11 -8 25 -19 32 -25 7 -5 14 -6 17 -1 7 11 -12 27 -44
34 -24 6 -24 5 -5 -8z"/>
<path d="M1415 3633 c4 -27 10 -50 14 -53 4 -3 13 -14 19 -25 18 -31 14 2 -4
38 l-17 32 22 -19 c20 -18 19 -16 -5 27 -14 26 -28 47 -31 47 -3 0 -2 -21 2
-47z"/>
<path d="M1280 3635 c0 -2 9 -29 21 -59 21 -57 45 -89 29 -39 -26 80 -36 103
-42 103 -5 0 -8 -2 -8 -5z"/>
<path d="M1334 3588 c10 -35 27 -208 22 -217 -3 -4 0 -37 6 -72 6 -35 10 -83
10 -107 -1 -24 2 -40 7 -37 5 3 12 -1 14 -7 4 -10 6 -10 6 -1 1 8 8 10 19 6
15 -6 15 -5 3 10 -7 9 -17 14 -22 11 -14 -8 -11 30 4 45 10 11 9 13 -5 8 -12
-4 -18 -1 -18 9 0 8 5 12 10 9 6 -3 10 1 10 9 0 8 8 17 18 20 9 3 5 4 -10 2
-27 -3 -38 14 -37 59 0 20 0 20 9 0 8 -19 9 -19 9 2 1 12 -3 23 -8 25 -5 2
-12 39 -15 83 -8 113 -17 165 -28 165 -6 0 -8 -10 -4 -22z"/>
<path d="M1406 3501 c7 -123 8 -128 40 -134 29 -5 32 9 4 18 -20 6 -30 31 -29
75 0 14 -4 52 -10 85 -9 53 -9 49 -5 -44z"/>
<path d="M2256 3587 c3 -10 3 -17 -2 -16 -5 1 -16 1 -24 0 -12 -1 -13 -3 -1
-10 16 -10 5 -35 -13 -28 -7 3 -19 1 -27 -3 -8 -5 -20 -4 -29 3 -13 10 -13 10
-3 -4 7 -9 9 -19 5 -24 -4 -4 7 0 23 10 l30 17 -25 -21 c-14 -11 -21 -21 -16
-21 17 0 -17 -30 -35 -30 -9 0 -24 -7 -32 -15 -8 -8 -16 -12 -18 -10 -3 2 -15
-5 -29 -15 -14 -11 -20 -20 -13 -20 6 0 15 5 18 10 5 8 12 7 23 -2 9 -7 13 -8
9 -2 -4 7 -1 17 6 23 23 18 16 -17 -6 -36 -15 -13 -18 -14 -13 -3 5 8 -3 2
-17 -15 -14 -16 -24 -32 -22 -35 2 -3 -22 -32 -52 -65 -30 -33 -51 -53 -47
-45 6 12 5 13 -7 2 -8 -7 -14 -18 -14 -24 0 -6 -6 -13 -12 -15 -22 -8 -14 12
22 60 21 28 41 44 49 41 8 -3 17 0 22 7 5 9 2 10 -11 6 -11 -5 -5 6 16 30 18
21 37 37 42 35 5 -1 5 3 2 9 -5 7 -21 -3 -46 -27 -24 -23 -39 -32 -39 -24 0
13 -54 -65 -55 -80 0 -3 -7 -16 -14 -28 -7 -13 -10 -26 -7 -29 3 -4 1 -12 -5
-20 -6 -7 -8 -13 -5 -13 4 0 2 -8 -3 -18 -7 -13 -7 -22 0 -29 8 -8 7 -13 -2
-18 -8 -5 -10 -4 -5 3 9 14 -13 15 -34 2 -12 -8 -13 -13 -3 -28 10 -17 6 -23
-32 -51 -24 -17 -52 -31 -62 -32 -11 0 -13 -3 -5 -6 17 -7 125 45 117 57 -3 5
3 14 12 20 16 9 16 10 1 8 -9 -2 -16 2 -15 7 1 6 12 9 23 7 12 -1 27 5 34 13
8 9 9 15 3 13 -6 -2 -11 2 -11 7 0 6 4 9 9 7 14 -3 52 18 45 26 -4 3 4 16 16
29 12 13 18 23 13 23 -4 0 4 11 19 25 15 14 31 23 36 20 5 -3 11 -1 15 5 4 6
10 8 15 5 5 -3 11 -1 14 3 3 5 -11 8 -31 7 -30 -1 -45 -11 -82 -51 -26 -27
-54 -55 -64 -63 -33 -26 -15 10 18 38 60 50 159 146 158 153 -3 8 23 29 39 32
7 1 20 6 28 11 8 5 17 10 20 10 11 0 54 35 43 35 -7 0 -10 9 -8 20 2 12 0 18
-6 14 -6 -3 -8 -9 -5 -12 7 -6 -33 -36 -51 -38 -7 -1 -11 2 -7 7 3 5 9 7 13 4
5 -2 22 13 40 35 20 26 37 38 50 35 11 -2 31 10 50 29 30 31 31 34 13 38 -11
3 -26 2 -33 -3 -13 -8 -5 -13 15 -10 5 1 4 -5 -3 -13 -23 -28 -38 0 -17 32 5
8 3 19 -3 25 -9 9 -11 8 -5 -6z"/>
<path d="M2622 3544 c-7 -25 -9 -50 -6 -56 4 -7 2 -8 -4 -4 -13 8 -14 4 -17
-67 -1 -26 -5 -50 -8 -53 -3 -3 -1 -19 3 -35 5 -16 6 -29 2 -29 -4 0 -7 -44
-7 -97 0 -98 -21 -273 -45 -373 -19 -82 -51 -147 -124 -258 -81 -122 -108
-182 -142 -314 -15 -57 -44 -154 -66 -215 -21 -62 -36 -118 -32 -125 4 -6 3
-8 -3 -5 -5 3 -17 -9 -26 -28 -16 -33 -16 -35 2 -35 26 0 41 22 47 67 10 75
13 83 32 77 12 -4 13 -3 5 3 -10 7 -10 21 2 67 8 32 21 67 27 79 12 22 14 28
16 59 1 9 13 30 27 45 23 27 24 27 25 6 0 -12 -4 -25 -10 -28 -5 -3 -10 -12
-10 -18 0 -7 4 -6 10 3 5 8 10 11 10 5 0 -17 17 9 24 39 7 27 6 28 -24 24 -27
-4 -30 -2 -24 16 18 55 56 128 65 119 5 -5 9 -42 10 -82 1 -51 4 -69 11 -57 5
9 6 21 2 28 -4 7 -3 8 5 4 9 -6 10 0 4 21 -4 15 -7 43 -7 60 -1 20 -6 33 -13
33 -7 0 -13 6 -13 14 0 21 11 46 20 46 8 0 33 -90 29 -106 -4 -15 31 -124 62
-192 16 -35 50 -90 76 -123 l48 -59 8 30 c5 19 12 28 19 24 7 -5 8 -3 3 6 -6
10 -11 9 -21 -5 -8 -10 -15 -17 -17 -14 -22 25 -60 110 -80 179 -35 118 -37
134 -40 227 -1 45 -5 84 -8 88 -4 3 -5 -7 -3 -22 2 -15 1 -20 -2 -10 -8 24
-24 22 -24 -4 0 -11 -4 -17 -10 -14 -5 3 -7 0 -4 -8 3 -8 1 -18 -5 -22 -6 -3
-11 -2 -11 4 0 5 -2 16 -5 23 -3 8 17 38 50 71 33 34 53 62 49 69 -5 7 -3 8 5
4 8 -5 14 0 18 14 4 14 11 19 22 15 13 -5 14 -4 3 7 -11 11 -16 10 -28 -6 -21
-29 -17 -15 9 35 20 37 42 114 64 224 3 11 4 39 4 63 0 24 3 41 7 38 4 -2 8
82 9 188 1 105 5 199 8 209 5 10 2 17 -5 17 -9 0 -9 4 -3 13 9 10 27 147 20
147 -2 0 -8 -21 -15 -46z"/>
<path d="M1382 3505 c0 -16 4 -41 8 -55 l8 -25 0 25 c0 14 -4 39 -8 55 l-8 30
0 -30z"/>
<path d="M2279 3490 c-8 -5 -24 -7 -35 -6 -27 5 -37 -3 -23 -20 12 -14 25 -10
64 20 22 17 19 21 -6 6z"/>
<path d="M1664 3459 c-4 -8 -3 -9 4 -5 7 4 12 2 12 -3 0 -6 -9 -11 -20 -11
-11 0 -20 -6 -20 -14 0 -17 30 -49 38 -41 3 3 -3 12 -14 19 -25 19 -12 31 18
16 18 -10 21 -10 11 0 -6 7 -9 18 -7 25 7 17 -13 29 -22 14z"/>
<path d="M1134 3395 c9 -13 16 -34 16 -45 0 -12 4 -19 8 -16 5 3 16 -21 26
-52 28 -88 36 -103 30 -57 -4 29 -2 36 5 25 9 -12 11 -11 11 8 0 13 -4 21 -9
18 -10 -7 -21 17 -21 45 0 10 -4 19 -9 19 -5 0 -12 8 -16 19 -7 22 -39 61 -50
61 -4 0 0 -11 9 -25z"/>
<path d="M582 3351 c-6 -16 -8 -40 -5 -53 4 -19 3 -20 -7 -8 -10 13 -11 13 -9
0 3 -34 -2 -61 -11 -55 -6 3 -7 -1 -4 -9 3 -9 10 -16 15 -16 8 0 10 5 9 25 0
3 6 18 15 35 17 33 20 54 5 45 -15 -9 -12 4 5 21 16 17 20 44 6 44 -5 0 -14
-13 -19 -29z"/>
<path d="M1606 3362 c-4 -7 -3 -12 1 -12 5 0 21 -11 36 -25 20 -19 27 -22 27
-10 0 8 -6 15 -14 15 -7 0 -20 10 -28 22 -10 15 -17 18 -22 10z"/>
<path d="M1421 3332 c-1 -7 5 -15 13 -18 8 -3 13 -13 11 -22 -1 -9 0 -12 2 -5
2 7 12 9 20 6 13 -5 12 -2 -3 14 -10 11 -22 18 -26 16 -3 -2 -9 3 -11 9 -4 10
-6 10 -6 0z"/>
<path d="M2254 3275 c-23 -13 -49 -37 -59 -51 -11 -18 -20 -23 -24 -15 -5 8
-14 4 -27 -11 -16 -19 -16 -20 -1 -9 9 8 19 12 22 10 7 -7 -326 -332 -385
-377 -57 -42 -91 -59 -149 -73 -27 -6 -43 -3 -75 15 -45 24 -117 48 -125 41
-2 -3 13 -12 35 -21 21 -9 51 -25 66 -35 57 -41 160 -16 260 63 23 18 137 127
253 242 115 114 220 212 233 217 13 5 32 5 47 -1 19 -7 25 -6 25 4 0 14 -21
26 -43 26 -7 0 -31 -11 -53 -25z"/>
<path d="M977 3280 c-16 -5 -52 -27 -80 -49 -77 -60 -217 -195 -217 -209 0
-26 32 -9 82 44 59 62 155 114 209 114 106 -1 178 -87 260 -307 19 -51 40 -93
47 -93 9 0 10 5 2 19 -5 11 -10 22 -10 25 0 3 43 -16 95 -41 53 -25 98 -44
100 -41 7 6 -114 78 -131 78 -19 0 -40 34 -65 106 -13 35 -26 64 -30 64 -5 0
-2 -19 7 -42 8 -22 12 -43 10 -45 -7 -7 -33 79 -55 181 -25 118 -44 153 -97
183 -41 24 -79 27 -127 13z m41 -32 c10 -10 15 -10 22 2 8 12 10 12 15 -2 4
-10 14 -14 26 -11 13 4 19 0 19 -12 0 -11 5 -15 15 -11 10 4 15 -1 15 -14 0
-22 -25 -27 -34 -7 -4 8 -8 9 -11 1 -8 -16 -75 7 -76 26 0 10 -2 11 -6 3 -2
-7 -17 -13 -31 -13 -15 -1 -45 -7 -67 -15 -38 -13 -39 -13 -16 3 28 20 103 62
111 62 3 0 12 -6 18 -12z m151 -112 c16 -65 14 -74 -13 -45 -17 19 -22 33 -18
57 6 45 18 40 31 -12z"/>
<path d="M1861 3225 c-11 -37 -15 -44 -18 -28 -3 14 -9 20 -18 16 -12 -4 -12
-7 0 -19 11 -11 12 -21 5 -40 -13 -34 -13 -39 4 -24 8 6 12 19 9 27 -4 11 -2
14 6 9 6 -4 11 -4 10 1 -1 4 3 21 10 37 6 16 11 39 9 50 -2 13 -8 2 -17 -29z"/>
<path d="M439 3208 c0 -7 -2 -23 -5 -35 -3 -16 0 -21 11 -17 8 4 13 17 12 35
-2 28 -16 42 -18 17z"/>
<path d="M527 3213 c-2 -5 -3 -22 -2 -40 2 -18 -2 -31 -7 -30 -6 1 -12 -9 -14
-22 -2 -13 -13 -43 -24 -67 -10 -24 -15 -44 -9 -44 5 0 9 -5 9 -11 0 -5 -4 -7
-10 -4 -5 3 -10 1 -10 -4 0 -6 -4 -11 -10 -11 -9 0 -8 12 6 124 5 36 4 47 -5
42 -6 -4 -9 -11 -6 -16 3 -5 -1 -24 -10 -41 -9 -17 -12 -28 -5 -24 13 8 6 -29
-16 -87 -8 -21 -11 -38 -7 -38 3 0 -2 -10 -13 -22 -15 -19 -16 -20 -1 -9 16
13 25 2 10 -13 -12 -12 -32 -86 -23 -86 4 0 13 14 20 30 7 17 15 29 17 26 2
-2 -3 -18 -11 -35 -9 -17 -15 -32 -14 -34 2 -2 -5 -15 -15 -30 -9 -15 -15 -27
-12 -27 3 0 -2 -17 -11 -37 -45 -107 -72 -198 -79 -262 -5 -53 -11 -71 -22
-71 -9 0 -13 -6 -10 -15 10 -23 -12 -29 -36 -8 -21 18 -21 18 1 -11 12 -16 22
-35 22 -43 0 -8 4 -12 10 -8 5 3 7 12 4 19 -3 8 3 20 14 27 14 10 21 32 26 80
8 72 38 164 111 334 26 61 67 169 91 240 25 72 52 147 61 167 14 33 14 38 0
53 -9 8 -18 12 -20 8z m-67 -248 c0 -9 -40 -85 -45 -85 -2 0 3 20 13 45 9 25
20 45 24 45 4 0 8 -2 8 -5z"/>
<path d="M1347 3145 c3 -44 11 -93 19 -109 18 -37 18 -39 -2 -32 -10 4 -14 2
-10 -6 3 -7 9 -21 12 -30 4 -10 11 -18 18 -19 6 0 18 -2 26 -4 8 -2 28 -7 45
-10 16 -3 53 -22 82 -41 28 -19 57 -34 63 -34 6 0 8 -4 5 -10 -4 -6 9 -10 32
-10 27 0 61 14 116 46 43 25 77 48 74 50 -2 2 -35 -14 -73 -36 -38 -22 -80
-40 -93 -40 -14 0 -50 17 -81 39 -30 21 -88 49 -127 61 -40 13 -73 27 -73 31
0 5 5 9 10 9 14 0 8 20 -12 42 -11 11 -18 34 -19 61 0 23 -4 60 -9 82 -7 30
-7 19 -3 -40z"/>
<path d="M1754 3155 c3 -10 -3 -17 -19 -21 -14 -3 -23 -10 -20 -14 3 -5 19 -2
36 7 24 12 28 18 18 29 -15 18 -23 18 -15 -1z"/>
<path d="M2203 3134 c-18 -9 -79 -57 -135 -108 -57 -50 -139 -120 -183 -156
-44 -35 -98 -80 -120 -100 -22 -19 -51 -43 -64 -53 -52 -35 -9 -26 85 18 111
53 166 88 244 158 56 50 118 90 156 101 32 10 81 -36 95 -87 6 -22 11 -74 12
-115 2 -86 22 -111 31 -40 21 168 13 326 -20 375 -17 27 -54 30 -101 7z m67
-31 c0 -16 2 -16 10 -3 8 11 10 5 8 -25 -2 -26 1 -39 9 -38 7 2 11 -15 11 -47
1 -29 -4 -50 -10 -50 -5 0 -8 6 -5 14 3 8 -11 24 -38 40 -42 27 -43 28 -32 64
16 57 47 86 47 45z m-95 -40 c-5 -10 -7 -23 -6 -30 1 -6 -3 -14 -9 -18 -14 -9
-13 48 2 63 15 15 22 7 13 -15z m-68 -75 c-17 -16 -35 -28 -41 -28 -6 0 -20
-13 -31 -30 -11 -17 -22 -25 -26 -18 -4 6 -13 -2 -20 -18 -17 -35 -50 -46 -42
-15 6 23 18 27 26 11 3 -6 4 -5 3 2 -4 17 12 48 25 48 5 0 23 13 38 29 16 16
31 27 34 25 10 -10 47 21 48 41 0 20 0 20 8 0 7 -15 1 -26 -22 -47z m-200
-148 c-23 -39 -88 -84 -114 -78 -11 3 114 116 130 117 5 1 -3 -17 -16 -39z"/>
<path d="M1734 3087 c-9 -20 -7 -22 15 -22 13 0 26 -6 28 -13 3 -7 -1 -10 -10
-6 -8 3 -18 1 -21 -5 -4 -6 -12 -8 -20 -5 -7 3 -18 -7 -24 -21 -11 -23 -32
-35 -32 -17 0 4 -11 21 -25 37 l-24 30 16 -45 c10 -25 22 -48 28 -52 17 -13
35 -9 29 7 -4 8 1 17 10 21 9 3 16 13 16 21 0 8 4 12 9 8 5 -3 13 0 16 6 4 5
13 8 21 5 8 -3 17 1 20 9 3 7 12 11 20 8 10 -4 14 2 13 18 -1 17 -3 19 -6 7
-4 -17 -6 -17 -31 -1 -15 10 -29 21 -32 25 -3 3 -10 -3 -16 -15z"/>
<path d="M2641 3032 c-14 -26 -14 -42 0 -22 8 12 9 9 5 -12 -4 -15 -8 -54 -11
-85 l-4 -58 10 50 c5 28 14 66 18 87 10 44 -2 71 -18 40z"/>
<path d="M1295 3011 c5 -16 4 -21 -4 -17 -15 10 -14 0 5 -35 8 -17 18 -28 22
-25 3 4 0 12 -6 18 -7 7 -12 18 -12 25 0 10 6 10 25 -3 37 -24 35 -14 -4 26
-30 30 -33 32 -26 11z"/>
<path d="M1141 2993 c-1 -13 3 -23 7 -23 4 0 13 -12 19 -27 44 -108 62 -145
62 -128 0 30 -87 205 -88 178z"/>
<path d="M1768 2972 c-26 -9 -59 -27 -75 -39 l-28 -23 35 19 c19 10 52 24 72
31 21 6 40 16 43 21 4 5 5 9 3 8 -2 0 -24 -8 -50 -17z"/>
<path d="M930 2893 c0 -6 5 -15 10 -18 6 -3 10 -11 10 -17 0 -6 -7 -5 -17 3
-10 7 -7 1 6 -13 13 -15 29 -24 34 -21 8 5 7 8 -1 11 -7 2 -10 7 -7 12 3 4 -4
19 -15 31 -11 13 -19 19 -20 12z"/>
<path d="M1117 2876 c-3 -8 2 -20 11 -28 10 -8 13 -8 9 -1 -4 6 -3 14 2 17 4
3 16 -14 25 -38 9 -25 24 -50 33 -58 15 -11 16 -11 9 7 -5 11 -11 30 -13 43
-3 12 -9 22 -13 22 -4 0 -12 11 -18 25 -13 27 -37 33 -45 11z"/>
<path d="M2611 2859 c-1 -35 -38 -139 -57 -160 -13 -14 -13 -17 0 -22 18 -7
26 1 26 25 0 10 5 18 11 18 6 0 9 9 6 20 -3 11 -1 23 4 26 5 3 9 16 9 30 0 14
4 22 10 19 12 -7 12 22 0 50 -8 18 -9 18 -9 -6z"/>
<path d="M293 2854 c10 -10 -26 -42 -42 -37 -14 4 -14 3 -1 -7 11 -9 12 -13 3
-17 -7 -2 -13 -11 -13 -19 0 -8 -7 -11 -17 -8 -11 4 -14 2 -8 -3 16 -13 16
-33 1 -39 -9 -3 -12 -12 -9 -21 4 -11 2 -14 -5 -9 -7 4 -12 1 -12 -7 0 -8 -7
-20 -16 -28 -13 -11 -19 -10 -37 1 -20 12 -21 12 -8 -3 7 -10 21 -17 30 -18
10 0 11 -2 4 -6 -7 -2 -13 -12 -13 -20 0 -10 -6 -13 -17 -8 -14 5 -15 3 -7 -5
12 -12 7 -53 -6 -45 -8 5 -20 -55 -23 -112 -1 -18 -6 -33 -12 -33 -5 0 -3 -5
5 -10 12 -8 13 -11 1 -19 -10 -7 -10 -10 -1 -13 8 -2 13 -23 14 -51 1 -26 5
-47 10 -47 4 0 6 -9 3 -20 -3 -11 0 -20 6 -20 7 0 5 -5 -3 -10 -13 -8 -12 -10
4 -10 12 0 16 -5 12 -15 -3 -8 -1 -15 5 -15 6 0 7 -4 4 -10 -3 -5 3 -10 14
-10 25 0 26 8 5 31 -8 9 -19 46 -25 80 -5 35 -13 81 -18 101 -10 44 9 149 38
206 96 188 123 238 142 258 21 22 21 24 4 24 -10 0 -16 -3 -12 -6z"/>
<path d="M880 2854 c0 -9 90 -94 99 -94 4 0 -13 23 -38 50 -43 46 -61 59 -61
44z"/>
<path d="M1994 2798 c-23 -26 -24 -29 -4 -12 41 34 54 40 46 19 -5 -14 -4 -16
7 -7 8 7 16 11 18 9 2 -1 -2 4 -10 11 -21 17 -24 16 -57 -20z"/>
<path d="M1607 2806 c24 -18 87 -14 99 6 3 5 -6 6 -23 1 -34 -9 -52 -8 -78 2
-17 6 -17 5 2 -9z"/>
<path d="M877 2803 c-4 -6 0 -13 8 -16 7 -3 21 -19 29 -34 8 -15 35 -49 60
-76 39 -41 46 -44 46 -26 0 13 -2 20 -5 17 -5 -5 -75 56 -75 66 0 3 -7 14 -15
23 -8 10 -21 27 -28 37 -9 12 -16 15 -20 9z"/>
<path d="M298 2759 c-38 -51 -41 -59 -24 -59 9 0 16 7 16 16 0 11 6 14 20 9
25 -8 37 17 23 47 -9 21 -10 20 -35 -13z"/>
<path d="M1030 2783 c0 -5 10 -21 23 -34 12 -14 29 -36 38 -49 9 -14 20 -22
24 -18 4 3 -2 15 -12 25 -10 11 -30 34 -45 53 -16 19 -28 29 -28 23z"/>
<path d="M1230 2781 c0 -7 11 -26 25 -43 14 -16 25 -38 25 -48 0 -9 7 -23 15
-30 13 -10 15 -9 14 11 -1 28 -31 83 -42 78 -5 -2 -15 7 -22 21 -8 14 -14 19
-15 11z"/>
<path d="M1330 2722 c0 -12 62 -52 81 -52 16 0 5 10 -43 39 -21 13 -38 18 -38
13z"/>
<path d="M1590 2698 c23 -22 76 -21 77 1 1 14 -8 17 -47 16 -46 0 -47 -1 -30
-17z"/>
<path d="M1422 2699 c3 -8 22 -16 44 -19 22 -3 53 -15 70 -26 28 -21 54 -22
54 -3 0 6 -5 7 -10 4 -6 -4 -24 5 -41 19 -20 17 -41 25 -63 24 -18 -1 -39 2
-46 7 -8 5 -11 3 -8 -6z"/>
<path d="M2063 2699 c1 -6 -4 -14 -12 -17 -8 -3 -11 0 -7 7 11 17 0 14 -59
-20 -36 -20 -55 -26 -55 -18 0 10 -3 10 -12 1 -14 -14 -32 -16 -24 -3 9 14
-26 23 -38 11 -8 -8 -6 -9 5 -5 10 4 19 0 23 -10 4 -11 13 -14 28 -10 22 6 22
6 4 -9 -11 -9 -15 -16 -9 -16 7 0 15 5 19 11 3 6 15 9 25 6 11 -3 17 -1 13 4
-3 5 0 10 5 10 14 2 23 4 41 12 83 36 119 37 142 3 5 -7 8 -5 8 5 0 9 -15 24
-34 33 -40 19 -67 21 -63 5z"/>
<path d="M1702 2658 c-45 -22 -80 -43 -78 -45 6 -6 155 67 162 79 7 11 8 12
-84 -34z"/>
<path d="M267 2662 c-32 -33 -36 -54 -6 -26 20 18 44 54 36 54 -2 0 -15 -13
-30 -28z"/>
<path d="M1048 2663 c11 -20 62 -30 62 -11 0 6 -3 9 -6 5 -4 -3 -20 1 -36 9
-28 14 -29 14 -20 -3z"/>
<path d="M1785 2659 c-27 -11 -54 -24 -60 -29 -5 -4 -37 -22 -70 -39 -66 -34
-56 -42 14 -11 24 11 50 20 58 20 18 0 115 41 110 47 -2 2 -26 -6 -52 -17 -67
-29 -68 -18 -1 15 31 15 56 29 56 31 0 5 3 6 -55 -17z"/>
<path d="M1440 2617 c0 -4 -4 -5 -10 -2 -5 3 -10 1 -10 -6 0 -8 12 -10 39 -5
23 3 42 2 46 -4 3 -5 1 -10 -6 -10 -10 0 -10 -3 -1 -12 9 -9 16 -8 29 4 10 8
25 18 33 21 10 5 9 6 -5 5 -11 -1 -32 4 -47 10 -30 12 -68 12 -68 -1z"/>
<path d="M2040 2613 c-8 -2 -29 -11 -47 -19 -17 -8 -35 -14 -40 -14 -13 0
-134 -53 -129 -57 2 -2 28 6 57 17 30 12 65 23 79 26 14 3 29 9 35 15 5 5 16
9 25 9 9 0 25 7 36 15 19 14 12 18 -16 8z"/>
<path d="M2564 2594 c-4 -14 -1 -50 6 -79 7 -29 10 -60 7 -69 -4 -9 -2 -16 3
-16 5 0 11 -10 13 -22 2 -13 2 6 -1 42 -2 36 -9 71 -15 78 -5 7 -7 30 -4 52 6
45 1 53 -9 14z"/>
<path d="M1830 2555 c-36 -19 -62 -34 -58 -34 14 -2 128 52 128 60 0 5 -1 9
-2 8 -2 -1 -32 -16 -68 -34z"/>
<path d="M2035 2570 c-3 -5 -18 -10 -33 -11 l-27 0 25 -10 c18 -8 27 -7 35 4
5 8 17 16 25 20 12 4 12 6 -2 6 -9 1 -20 -3 -23 -9z"/>
<path d="M1889 2519 c-5 -3 7 -6 28 -7 21 -1 43 2 50 6 6 4 -6 7 -28 7 -22 0
-45 -2 -50 -6z"/>
<path d="M1093 2428 c-5 -18 -15 -32 -20 -31 -6 1 -16 -12 -22 -29 -6 -17 -14
-29 -17 -25 -7 7 -45 -31 -48 -49 -2 -15 -46 -72 -89 -116 -15 -15 -24 -28
-19 -28 5 0 31 25 58 55 27 30 78 86 113 124 38 42 60 74 56 81 -4 7 -3 15 3
19 6 4 7 12 3 19 -5 9 -11 2 -18 -20z"/>
<path d="M2541 2403 c-7 -16 -10 -25 -6 -21 4 4 15 -2 25 -14 14 -18 18 -19
23 -5 4 12 2 14 -10 10 -11 -4 -14 -2 -9 5 4 7 2 12 -4 12 -7 0 -9 8 -5 20 9
29 0 24 -14 -7z"/>
<path d="M1811 2409 c-18 -6 -31 -12 -29 -14 2 -3 18 -1 35 4 16 5 43 7 59 5
24 -4 26 -3 9 5 -25 12 -31 12 -74 0z"/>
<path d="M2952 2395 c0 -16 3 -39 8 -50 8 -18 9 -18 8 5 0 14 -4 36 -8 50 -8
24 -8 24 -8 -5z"/>
<path d="M2631 2353 c-1 -7 -13 -13 -27 -13 -14 0 -23 -4 -20 -8 7 -11 76 -2
76 10 0 5 -4 7 -9 4 -5 -4 -12 0 -14 6 -4 10 -6 10 -6 1z"/>
<path d="M1854 2339 c27 -4 53 -14 57 -21 6 -10 10 -10 19 0 5 6 7 10 4 7 -4
-2 -16 2 -28 10 -11 8 -39 14 -61 14 l-40 -1 49 -9z"/>
<path d="M1527 2319 c-9 -10 -17 -27 -17 -37 1 -15 2 -14 12 3 6 11 18 25 26
31 9 6 11 13 5 17 -5 3 -17 -3 -26 -14z"/>
<path d="M1818 2314 c13 -9 35 -14 55 -11 31 4 31 4 -5 5 -21 1 -38 7 -38 12
0 6 -8 10 -17 10 -14 0 -13 -3 5 -16z"/>
<path d="M1532 2273 c-9 -21 -8 -40 3 -78 7 -27 14 -48 15 -45 6 24 4 88 -2
84 -4 -3 -8 1 -8 10 0 8 6 17 13 19 9 4 9 6 0 6 -7 1 -10 8 -7 16 4 8 4 15 1
15 -2 0 -9 -12 -15 -27z"/>
<path d="M2821 2260 c-1 -15 12 -40 30 -60 17 -19 27 -28 23 -20 -4 8 -13 22
-21 31 -8 9 -18 30 -23 45 -8 29 -8 29 -9 4z"/>
<path d="M2291 2143 c0 -32 4 -80 9 -108 6 -43 8 -36 9 52 0 59 -3 104 -9 108
-6 4 -10 -16 -9 -52z"/>
<path d="M1036 2181 c-5 -7 15 -22 34 -25 3 -1 26 -18 51 -38 55 -46 64 -47
45 -9 -30 58 -111 103 -130 72z"/>
<path d="M942 2131 c-28 -50 -29 -97 -2 -111 16 -8 24 -8 35 4 13 13 13 15 -6
21 -19 6 -20 12 -15 49 4 22 11 45 17 51 11 11 12 25 1 25 -5 0 -18 -17 -30
-39z"/>
<path d="M164 2144 c-10 -8 -14 -13 -7 -9 21 10 60 -6 70 -28 6 -12 9 -40 8
-62 -5 -77 -18 -170 -24 -172 -3 -2 -6 -22 -5 -45 0 -24 -3 -77 -6 -118 -4
-41 -3 -79 1 -83 4 -5 -2 -18 -12 -28 -11 -11 -18 -23 -15 -27 3 -5 -6 -21
-20 -37 -26 -30 -29 -41 -15 -50 5 -3 11 5 13 17 2 13 11 24 23 27 11 2 24 10
28 17 5 8 11 13 15 10 4 -2 7 55 8 127 0 73 6 164 12 202 6 39 14 108 18 155
l6 85 -36 18 c-44 21 -38 20 -62 1z"/>
<path d="M2350 2150 c0 -12 44 -31 63 -27 7 1 11 -5 9 -13 -3 -12 -1 -13 10
-2 11 11 10 14 -1 21 -8 5 -21 7 -29 3 -10 -3 -13 -1 -8 6 5 8 2 10 -8 6 -9
-3 -16 -1 -16 5 0 6 -4 11 -10 11 -5 0 -10 -5 -10 -10z"/>
<path d="M2899 2132 c10 -18 10 -26 0 -38 -10 -12 -10 -17 0 -27 10 -9 11 -8
6 6 -4 10 -2 17 4 17 17 0 13 36 -6 51 -15 13 -15 12 -4 -9z"/>
<path d="M990 2135 c0 -12 42 -45 57 -45 8 0 11 5 8 10 -3 6 -11 10 -17 10 -6
0 -20 7 -30 17 -10 9 -18 13 -18 8z"/>
<path d="M2812 2130 c3 -9 -5 -22 -19 -31 -16 -11 -21 -19 -14 -23 6 -4 11 -2
11 4 0 6 5 8 12 4 7 -4 8 -3 4 4 -7 11 6 17 28 13 5 -1 3 6 -4 16 -22 28 -23
29 -18 13z"/>
<path d="M2337 2047 c-7 -96 -36 -184 -78 -232 -16 -18 -29 -36 -29 -39 0 -8
41 -3 58 7 15 10 16 27 1 27 -5 0 -7 -5 -3 -12 4 -7 3 -8 -5 -4 -17 11 -2 28
21 23 16 -5 17 -3 6 10 -10 13 -10 17 -1 20 7 3 15 4 18 4 3 -1 11 4 19 11 14
14 10 42 -5 32 -5 -3 -7 -10 -4 -15 7 -10 -8 -13 -18 -3 -8 8 18 34 33 34 7 0
5 6 -4 16 -17 17 -20 25 -8 23 19 -3 23 2 12 16 -10 12 -10 15 4 15 9 0 16 5
16 11 0 5 -4 7 -10 4 -5 -3 -10 -1 -10 5 0 8 11 9 33 5 l32 -6 -33 16 c-32 14
-39 36 -14 41 7 1 8 0 2 -3 -5 -2 -8 -9 -4 -14 3 -5 13 0 23 12 9 11 29 22 43
22 15 1 23 6 18 11 -5 5 -21 2 -38 -6 -23 -12 -32 -12 -45 -3 -23 17 -21 28 3
20 15 -5 18 -3 14 9 -3 9 -10 13 -15 10 -5 -3 -9 0 -9 5 0 6 -4 11 -9 11 -4 0
-11 -37 -14 -83z"/>
<path d="M1338 2100 c-15 -4 -39 -18 -54 -29 -28 -22 -25 -28 6 -11 12 6 28 7
43 1 19 -8 27 -6 31 4 4 10 14 13 34 9 35 -7 51 11 23 25 -23 13 -45 13 -83 1z"/>
<path d="M1500 2080 c-11 -11 -20 -29 -20 -40 0 -22 -35 -35 -75 -28 -20 4
-23 2 -14 -8 6 -7 24 -11 40 -9 38 5 40 -26 3 -45 -22 -12 -27 -12 -34 0 -6 8
-10 11 -10 6 0 -6 -5 -5 -12 2 -7 7 -16 12 -20 12 -5 0 8 -14 28 -32 45 -40
62 -32 87 43 10 30 24 61 31 69 14 17 28 50 21 50 -3 0 -14 -9 -25 -20z"/>
<path d="M1105 1998 c43 -30 87 -37 153 -25 50 10 60 15 50 25 -14 14 -42 16
-33 2 3 -5 -4 -10 -17 -11 -13 -1 -40 -2 -60 -3 -21 -1 -38 0 -38 4 0 3 -8 6
-17 6 -10 1 -27 5 -38 9 -20 7 -20 7 0 -7z"/>
<path d="M2930 1974 c0 -4 8 -13 18 -20 10 -8 12 -13 5 -14 -8 0 -5 -8 7 -20
12 -12 18 -26 14 -32 -4 -6 -3 -8 3 -5 15 9 -9 77 -31 89 -9 5 -16 6 -16 2z"/>
<path d="M2400 1949 c-12 -8 -10 -9 8 -4 13 4 22 2 22 -4 0 -6 -5 -11 -11 -11
-5 0 -7 -5 -3 -11 5 -8 10 -6 16 5 5 9 14 14 19 10 6 -4 3 -14 -8 -27 l-18
-21 26 20 27 19 -27 17 c-30 21 -31 21 -51 7z"/>
<path d="M2527 1896 c-4 -9 -11 -14 -17 -11 -5 3 -7 0 -4 -9 3 -8 0 -24 -6
-36 -7 -13 -8 -20 -2 -16 6 3 13 0 16 -6 3 -7 3 -2 0 12 -5 25 -5 25 12 5 17
-21 17 -20 -3 33 -6 15 -3 14 17 -3 23 -20 23 -20 13 0 -6 11 -12 27 -15 34
-3 12 -6 11 -11 -3z"/>
<path d="M2390 1860 c-12 -8 -11 -10 6 -10 12 0 27 -7 34 -15 7 -8 18 -15 24
-15 6 0 5 4 -3 9 -8 5 -10 14 -6 21 5 9 4 11 -4 6 -6 -4 -17 -3 -24 3 -8 6
-18 6 -27 1z"/>
<path d="M921 1826 c-7 -9 3 -11 41 -11 36 1 53 -4 61 -15 6 -11 20 -15 36
-13 25 3 25 3 -3 -8 -20 -8 -38 -9 -62 -1 -19 5 -34 6 -34 1 0 -11 48 -24 73
-20 10 1 29 -5 43 -14 13 -9 38 -17 54 -18 25 -2 28 -4 15 -13 -8 -6 -15 -20
-15 -30 1 -15 4 -13 16 9 9 18 23 27 38 27 13 0 26 7 30 15 3 8 1 15 -4 15 -6
0 -10 -4 -10 -10 0 -5 -5 -10 -11 -10 -5 0 -7 6 -3 13 6 9 5 9 -8 0 -8 -7 -18
-10 -22 -6 -4 4 -15 8 -24 8 -9 0 -16 6 -14 14 2 8 -3 11 -12 8 -8 -3 -16 2
-19 14 -3 12 -14 19 -30 19 -13 0 -30 6 -37 14 -6 8 -18 12 -26 9 -8 -3 -14
-1 -14 3 0 14 -48 13 -59 0z"/>
<path d="M2095 1818 c-29 -25 -56 -94 -47 -117 4 -10 18 10 39 57 31 69 51 95
40 51 -4 -15 -2 -19 10 -15 8 3 17 6 19 6 2 0 4 9 4 20 0 27 -32 26 -65 -2z"/>
<path d="M885 1739 c-18 -22 -37 -33 -61 -35 -36 -3 -41 5 -24 37 6 10 8 19 5
19 -9 0 -37 -71 -31 -77 3 -3 24 -7 47 -9 23 -2 61 -15 85 -29 23 -14 48 -25
54 -25 6 0 29 -9 51 -19 21 -11 37 -15 33 -10 -10 17 76 9 111 -11 20 -11 48
-20 64 -20 32 0 61 -24 39 -33 -7 -3 -2 -6 12 -6 14 -1 35 6 47 14 19 14 25
13 64 -9 45 -26 80 -26 54 0 -7 8 -25 14 -39 14 -20 0 -24 4 -20 18 5 14 4 15
-5 2 -10 -13 -14 -11 -30 10 -11 13 -18 27 -16 31 2 3 0 19 -5 35 -4 16 -9 21
-9 12 -2 -29 -36 -22 -36 7 0 14 6 25 13 25 7 0 10 5 7 10 -3 6 5 10 19 10 13
0 27 -5 29 -10 3 -6 4 -5 3 2 -2 8 -19 13 -44 13 -23 1 -47 6 -54 13 -9 9 -8
12 7 12 10 0 16 3 12 6 -10 10 -47 -7 -47 -22 0 -8 4 -13 9 -9 18 10 40 -35
31 -61 -8 -21 -7 -24 13 -24 12 0 29 -5 37 -10 13 -8 12 -10 -2 -10 -10 0 -18
-4 -18 -10 0 -5 7 -7 15 -4 9 4 15 0 15 -9 0 -26 -16 -28 -43 -7 -14 11 -32
17 -41 14 -9 -4 -37 -1 -62 6 -43 12 -46 15 -40 42 4 22 2 28 -12 27 -10 0
-12 -3 -5 -6 10 -3 10 -9 0 -24 -15 -23 -66 -25 -108 -4 -25 13 -28 20 -23 43
4 16 3 23 -2 19 -5 -5 -9 -14 -9 -20 0 -15 -65 -16 -66 -2 0 6 -9 13 -20 17
-10 4 -19 12 -19 17 0 6 8 7 18 4 14 -6 15 -4 4 9 -15 18 0 34 21 22 6 -4 9
-4 5 1 -4 4 0 14 10 21 15 12 16 13 0 14 -9 0 -28 -14 -43 -31z"/>
<path d="M2174 1723 c-35 -41 -46 -47 -84 -49 -36 -1 -46 -6 -58 -29 -10 -20
-11 -30 -2 -39 8 -8 10 -7 5 6 -5 13 -2 15 14 11 12 -3 24 -9 27 -14 3 -5 13
-9 22 -9 12 1 10 5 -8 15 -14 8 -19 14 -11 15 11 0 11 3 1 15 -7 9 -8 15 -2
15 5 0 17 -11 26 -25 9 -14 23 -25 31 -25 8 0 15 -4 15 -9 0 -5 8 -12 18 -15
9 -3 0 9 -21 27 -20 17 -37 35 -37 40 0 8 34 -10 64 -33 18 -14 18 -14 5 8 -8
12 -19 22 -26 22 -6 0 -15 5 -19 11 -4 7 -1 10 7 7 8 -3 20 2 27 11 8 9 11 11
8 4 -4 -6 -2 -15 4 -18 6 -4 10 -3 9 2 -4 23 3 31 24 26 21 -4 21 -4 -3 12
l-25 16 28 -4 c20 -3 25 -1 18 6 -6 6 -11 16 -11 21 0 6 5 5 12 -2 20 -20 29
-13 11 8 -10 11 -20 20 -23 20 -3 -1 -23 -22 -46 -47z"/>
<path d="M2401 1623 c-30 -70 -39 -99 -31 -107 8 -8 9 -6 4 8 -5 13 -4 17 4
12 8 -5 12 0 12 13 0 28 14 26 39 -6 12 -14 23 -24 26 -21 3 2 -9 17 -25 33
-28 27 -43 64 -20 50 6 -4 10 5 10 20 0 17 4 24 11 19 8 -4 9 1 4 17 -6 20 -5
22 6 12 7 -7 17 -13 23 -13 5 0 1 7 -10 15 -15 12 -16 16 -5 24 7 5 9 11 4 14
-6 4 -29 -37 -52 -90z"/>
<path d="M1080 1689 c0 -5 -6 -7 -12 -3 -7 4 -6 -1 3 -11 12 -12 22 -14 33 -8
14 7 13 10 -4 21 -13 8 -20 9 -20 1z"/>
<path d="M2210 1607 c0 -8 104 -87 114 -87 4 0 1 7 -8 15 -8 8 -19 15 -25 15
-6 0 -15 9 -21 21 -7 11 -14 18 -17 15 -4 -3 -15 1 -25 11 -10 9 -18 13 -18
10z"/>
<path d="M2120 1592 c0 -11 38 -42 52 -42 5 0 8 5 8 10 0 6 -5 10 -12 10 -6 0
-20 7 -30 17 -10 9 -18 11 -18 5z"/>
<path d="M739 1569 c5 -15 7 -30 4 -33 -4 -3 1 -6 10 -6 22 0 21 13 -3 41
l-20 24 9 -26z"/>
<path d="M948 1567 c12 -7 19 -17 15 -22 -4 -4 -3 -5 4 -2 18 11 42 -3 36 -20
-5 -12 -1 -14 16 -8 20 6 22 5 12 -13 -6 -12 -11 -24 -11 -29 1 -4 8 5 16 20
9 16 14 30 12 31 -28 17 -108 56 -114 56 -5 -1 1 -6 14 -13z"/>
<path d="M1941 1463 c-86 -175 -131 -240 -248 -356 -105 -103 -110 -110 -127
-175 -31 -121 -89 -225 -174 -314 -78 -81 -163 -148 -237 -186 -22 -11 -49
-29 -60 -39 -11 -10 -37 -27 -58 -38 -21 -11 -33 -21 -27 -23 6 -2 20 4 31 14
18 16 20 16 42 -2 12 -10 16 -12 10 -4 -7 8 -13 17 -13 21 0 11 103 72 125 73
11 1 19 8 17 15 -2 8 3 11 13 8 8 -4 15 -1 15 5 0 7 4 7 13 -1 11 -8 19 -6 35
8 12 10 19 21 15 25 -3 3 1 6 10 6 10 0 17 8 17 19 0 10 7 22 16 25 8 3 12 11
8 17 -4 8 1 9 17 4 18 -5 20 -4 9 4 -13 9 -12 13 7 32 l22 22 -4 -29 c-2 -16
-4 -32 -4 -36 -1 -5 -7 -8 -13 -8 -7 0 -18 -11 -24 -24 -9 -20 -9 -23 2 -19 8
3 14 9 14 13 0 4 16 25 35 46 20 21 31 40 25 42 -5 2 -10 9 -10 15 0 5 3 8 6
4 3 -3 18 7 33 22 14 15 33 31 42 34 13 4 16 16 13 51 -2 25 1 48 6 51 6 4 8
11 5 16 -4 5 1 12 9 15 9 3 16 10 16 16 0 5 -4 6 -10 3 -6 -3 -7 1 -4 9 3 9
10 16 15 16 5 0 9 9 9 19 0 11 5 23 11 26 6 5 8 22 4 47 -5 27 -4 38 3 34 6
-3 20 10 32 29 12 20 24 34 27 31 2 -2 32 24 66 57 34 34 65 61 69 60 4 -2 10
6 13 17 4 11 11 20 16 20 5 0 9 5 9 12 0 6 9 21 19 32 11 12 21 28 23 36 2 8
11 21 21 28 9 7 15 17 12 22 -10 16 28 72 55 83 8 3 10 6 3 6 -12 1 21 81 34
81 4 0 15 -8 26 -17 19 -18 19 -17 6 5 -8 12 -17 22 -21 22 -5 0 -8 5 -8 11 0
5 6 7 13 3 9 -5 9 -4 0 6 -6 7 -9 19 -6 26 3 8 1 14 -4 14 -4 0 -32 -48 -62
-107z m-446 -753 c-3 -5 -1 -10 4 -10 6 0 11 5 11 12 0 6 3 8 6 5 9 -9 -16
-38 -27 -31 -5 3 -9 -3 -9 -12 0 -10 -3 -14 -6 -11 -4 3 -16 -5 -26 -19 -11
-14 -22 -23 -25 -20 -3 3 12 25 33 50 36 43 53 59 39 36z"/>
<path d="M225 1521 c6 -11 -6 -21 -36 -26 -12 -3 -24 -7 -28 -11 -3 -3 1 -5 9
-3 18 4 60 -10 61 -19 0 -4 2 -16 4 -27 2 -10 -1 -25 -6 -31 -7 -8 -6 -13 1
-16 6 -2 -10 -16 -35 -32 -30 -20 -42 -32 -34 -37 9 -5 3 -19 -21 -46 -19 -21
-38 -37 -42 -36 -4 2 -8 -2 -8 -7 0 -6 -10 -8 -24 -4 -25 6 -30 -6 -13 -33 4
-7 -6 -39 -23 -74 -43 -85 -32 -84 15 1 21 39 59 96 85 128 25 31 56 72 69 90
13 18 29 31 36 28 7 -2 17 0 23 6 19 19 26 -18 11 -55 -7 -17 -29 -57 -49 -87
-46 -69 -106 -177 -115 -210 -16 -51 -52 -66 -57 -23 -3 26 -3 26 -20 -10
l-17 -36 36 6 c32 5 35 4 30 -11 -4 -10 -7 -20 -7 -22 0 -2 -9 -4 -21 -4 -11
0 -17 -5 -14 -10 3 -6 0 -13 -8 -16 -16 -6 -17 -9 -21 -89 -4 -59 -4 -59 3 -8
3 29 13 61 21 70 53 63 93 116 83 109 -7 -4 -13 -2 -13 3 0 6 4 11 10 11 5 0
7 6 4 14 -3 8 -1 17 5 21 6 3 11 14 11 24 0 19 34 64 42 56 2 -3 11 6 18 20 7
14 17 25 22 25 4 0 8 8 8 18 0 10 9 28 21 40 11 12 25 37 31 55 6 17 18 37 27
43 13 10 10 22 -22 92 -20 45 -37 93 -37 107 0 14 -5 25 -11 25 -5 0 -8 -4 -4
-9z"/>
<path d="M1066 1514 c7 -3 10 -15 7 -27 -4 -18 -3 -19 6 -7 6 8 19 16 31 16
16 1 20 -5 20 -31 0 -18 7 -39 17 -46 15 -13 15 -12 5 8 -7 12 -12 33 -12 48
0 18 -7 28 -26 35 -25 10 -70 13 -48 4z"/>
<path d="M804 1499 c-4 -8 -3 -10 4 -5 7 4 12 1 12 -6 0 -36 107 -132 158
-143 10 -2 24 -5 32 -8 8 -2 12 -2 7 0 -4 3 -4 10 -1 15 4 6 2 8 -4 5 -19 -12
-94 37 -147 96 -36 39 -55 54 -61 46z"/>
<path d="M2197 1497 c-3 -7 3 -13 12 -14 9 0 32 -3 51 -7 19 -3 28 -4 20 0 -8
3 -22 8 -30 11 -8 4 -18 5 -22 5 -5 -1 -8 3 -8 8 0 14 -17 12 -23 -3z"/>
<path d="M2329 1477 c7 -10 9 -17 3 -17 -5 0 -8 -9 -5 -20 9 -34 18 -30 18 8
0 22 -6 37 -15 40 -13 5 -13 3 -1 -11z"/>
<path d="M2016 1452 c-7 -12 33 -26 90 -31 8 0 12 -6 9 -11 -4 -6 -12 -7 -18
-3 -7 4 -7 0 1 -10 8 -9 10 -22 6 -28 -4 -7 -3 -9 3 -6 8 5 153 -20 162 -28 1
-2 -1 -10 -5 -17 -5 -7 -10 -23 -12 -36 -1 -13 -11 -45 -22 -72 -10 -26 -16
-50 -14 -53 3 -3 1 -14 -5 -24 -7 -15 -7 -20 4 -20 7 0 11 6 8 12 -2 7 3 19
12 28 9 10 11 18 5 22 -5 3 -10 11 -10 17 0 7 6 6 15 -2 10 -9 15 -9 15 -1 0
6 -4 11 -10 11 -5 0 -7 7 -4 15 4 8 11 12 18 8 6 -3 8 -3 4 2 -4 4 -1 23 7 42
10 24 11 32 2 28 -7 -4 -3 2 9 12 11 10 19 24 16 31 -7 22 8 63 20 56 8 -5 9
-2 5 10 -4 10 -7 23 -7 29 0 7 -9 -8 -20 -32 -11 -23 -17 -47 -14 -52 3 -5 -2
-6 -10 -3 -19 7 -21 24 -4 24 7 0 8 3 3 8 -15 13 -115 33 -127 25 -6 -3 -8 -1
-5 4 7 11 -22 25 -99 48 -12 4 -24 2 -28 -3z"/>
<path d="M90 1430 c0 -5 -12 -10 -27 -10 -22 0 -25 -2 -13 -10 8 -5 26 -6 40
-3 24 6 24 6 7 -20 -18 -28 -8 -38 13 -12 15 18 56 20 66 3 5 -8 2 -9 -10 -5
-10 4 -15 3 -11 -3 9 -15 32 -12 38 4 6 15 -12 26 -44 26 -10 0 -28 9 -39 20
-11 11 -20 16 -20 10z"/>
<path d="M1395 1415 c-37 -28 -233 -97 -272 -95 -49 3 -73 0 -73 -9 0 -9 71
-7 140 5 19 3 61 17 92 30 32 13 61 23 65 22 12 -4 63 33 74 53 12 24 11 23
-26 -6z"/>
<path d="M2942 1413 c7 -18 16 -33 20 -33 4 0 8 -6 8 -12 0 -7 8 -22 17 -33
14 -18 15 -18 9 -2 -15 45 -19 70 -8 63 6 -4 8 2 5 14 -3 11 -9 20 -14 20 -5
0 -6 -6 -3 -14 3 -8 1 -17 -5 -21 -6 -3 -11 -2 -11 2 0 5 -7 18 -15 29 -13 17
-13 16 -3 -13z"/>
<path d="M2851 1377 c18 -27 35 -44 37 -38 2 5 -13 27 -34 48 l-37 38 34 -48z"/>
<path d="M2025 1395 c63 -18 65 -18 60 -2 -3 7 -27 13 -58 14 l-52 2 50 -14z"/>
<path d="M2806 1388 c3 -10 10 -18 16 -18 5 0 6 -4 3 -10 -3 -5 -2 -10 3 -10
5 0 22 -18 38 -41 15 -23 30 -37 32 -31 2 6 -8 23 -22 39 -14 15 -36 42 -51
58 -14 17 -22 22 -19 13z"/>
<path d="M2900 1365 c18 -19 36 -32 41 -30 4 3 10 -2 13 -11 4 -9 9 -15 11
-12 5 5 -23 68 -30 68 -2 0 -1 -10 3 -22 5 -23 5 -23 -17 -4 -12 11 -20 25
-17 31 2 6 -5 12 -17 12 -17 2 -15 -3 13 -32z"/>
<path d="M2745 1370 c11 -19 46 -45 62 -45 12 0 57 -53 58 -70 3 -37 20 -87
31 -92 8 -3 14 -10 14 -17 1 -11 55 -76 65 -76 3 0 5 6 5 14 0 8 4 16 9 18 5
2 3 12 -6 23 -15 20 -15 20 -8 -2 3 -13 2 -23 -2 -23 -15 0 -54 41 -48 50 3 5
-3 14 -14 19 -17 10 -35 53 -36 88 0 7 -7 21 -15 30 -8 10 -28 34 -44 53 -25
31 -28 32 -21 10 7 -25 7 -25 -25 5 -18 17 -29 23 -25 15z"/>
<path d="M2405 1321 c6 -20 4 -23 -9 -18 -14 6 -13 2 4 -23 12 -17 24 -30 27
-30 3 0 0 7 -7 15 -6 8 -9 22 -6 32 3 10 1 25 -5 33 -8 11 -9 9 -4 -9z"/>
<path d="M80 1316 c0 -20 14 -28 36 -19 16 6 16 7 -2 20 -23 17 -34 17 -34 -1z"/>
<path d="M232 1317 c-6 -7 -16 -26 -22 -42 l-10 -30 20 25 c11 14 20 30 20 37
0 6 6 14 13 16 7 4 8 6 1 6 -6 1 -16 -5 -22 -12z"/>
<path d="M2107 1304 c17 -13 17 -13 -2 -14 -12 -1 -15 -4 -7 -7 7 -3 21 2 30
10 9 8 24 17 32 19 8 3 -4 5 -28 5 -37 0 -40 -1 -25 -13z"/>
<path d="M2174 1301 l-39 -18 39 -7 c21 -4 41 -5 44 -2 3 3 -4 6 -16 6 -12 0
-22 5 -22 10 0 10 21 14 48 11 16 -2 15 6 -1 12 -8 3 -31 -3 -53 -12z"/>
<path d="M2814 1293 c15 -22 -3 -28 -19 -7 -14 18 -14 17 -4 -8 13 -29 43 -49
32 -21 -4 11 -3 14 6 9 7 -5 10 -18 6 -34 -4 -20 0 -30 14 -39 17 -11 19 -10
15 2 -4 8 -10 15 -15 15 -5 0 -9 5 -9 11 0 5 4 8 9 5 16 -10 0 30 -22 55 -12
14 -18 19 -13 12z"/>
<path d="M2115 1260 c-3 -5 -12 -7 -20 -4 -7 3 -22 1 -32 -6 -16 -10 -15 -10
5 -5 13 4 28 2 35 -3 7 -5 26 -12 42 -16 22 -5 26 -4 15 4 -8 5 -23 10 -33 10
-10 0 -15 5 -11 11 3 6 18 8 33 5 19 -5 22 -4 11 4 -19 12 -37 13 -45 0z"/>
<path d="M2481 1257 c0 -10 -5 -15 -11 -12 -15 9 -11 -7 6 -30 16 -19 16 -19
9 5 l-8 25 22 -19 c18 -17 21 -17 15 -3 -3 9 -10 17 -14 17 -5 0 -11 8 -13 18
-4 16 -5 16 -6 -1z"/>
<path d="M990 1245 c0 -6 62 -38 79 -41 12 -2 12 -1 0 10 -14 14 -79 38 -79
31z"/>
<path d="M2930 1234 c0 -6 7 -17 15 -24 8 -7 15 -18 15 -25 0 -7 6 -18 14 -24
11 -9 11 -5 2 23 -6 19 -12 33 -15 31 -2 -3 -10 3 -17 13 -7 9 -14 12 -14 6z"/>
<path d="M2900 1213 c0 -5 9 -18 20 -28 11 -10 20 -24 20 -31 0 -7 4 -15 9
-18 4 -3 6 5 4 19 -5 24 -53 77 -53 58z"/>
<path d="M2056 1182 c-3 -6 4 -8 16 -5 22 4 22 4 -2 -12 -18 -12 -19 -14 -5
-10 46 16 56 17 73 4 15 -12 16 -11 2 3 -18 20 -76 33 -84 20z"/>
<path d="M2370 1186 c0 -20 23 -57 42 -66 l23 -11 -22 20 c-13 10 -23 26 -23
35 0 8 -4 18 -10 21 -5 3 -10 4 -10 1z"/>
<path d="M76 1128 l-28 -43 27 25 c30 28 50 60 37 60 -5 0 -21 -19 -36 -42z"/>
<path d="M123 1143 c-7 -2 -13 -14 -13 -24 0 -23 15 -17 30 12 11 19 6 22 -17
12z"/>
<path d="M2510 1041 c0 -6 9 -19 20 -28 11 -10 20 -21 20 -26 0 -5 9 -20 20
-34 11 -14 20 -21 20 -16 0 6 -7 16 -15 23 -8 7 -15 17 -15 22 0 6 -11 23 -25
40 -14 16 -25 25 -25 19z"/>
<path d="M2890 1013 c0 -13 4 -23 10 -23 5 0 17 -16 26 -35 9 -19 20 -35 25
-35 14 0 11 9 -12 41 -11 16 -17 34 -13 41 4 7 4 10 -1 6 -4 -4 -14 0 -21 10
-12 16 -13 15 -14 -5z"/>
<path d="M2861 1008 c-1 -9 15 -35 34 -58 19 -23 35 -38 35 -32 0 5 -12 22
-26 37 -14 15 -30 37 -34 49 -7 16 -9 17 -9 4z"/>
<path d="M975 1000 c5 -9 1 -10 -16 -6 -13 3 -18 3 -11 0 6 -3 12 -13 12 -22
0 -12 3 -13 11 -5 6 6 18 9 25 6 22 -8 16 15 -7 28 -17 8 -20 8 -14 -1z"/>
<path d="M2950 990 c0 -6 4 -10 10 -10 5 0 7 -6 4 -13 -3 -8 2 -20 11 -27 20
-16 30 -7 12 11 -7 8 -12 19 -10 25 2 7 -3 14 -12 17 -8 4 -15 2 -15 -3z"/>
<path d="M1787 792 c1 -109 -3 -182 -9 -189 -7 -9 -6 -15 6 -19 9 -3 16 -10
16 -16 0 -5 -5 -6 -12 -2 -8 5 -10 -14 -5 -74 4 -51 3 -82 -3 -82 -6 0 -10 7
-10 16 0 8 -4 12 -10 9 -16 -10 -12 -23 10 -30 11 -3 20 -13 20 -21 0 -8 4
-14 9 -14 5 0 7 17 5 37 -4 28 0 41 13 50 9 7 12 13 7 13 -11 0 -11 55 1 82 4
10 3 30 -2 45 -5 16 -8 55 -6 88 7 176 3 249 -17 270 -13 13 -15 -7 -13 -163z"/>
<path d="M1873 949 c3 -9 1 -21 -5 -27 -14 -14 -1 -32 23 -32 13 0 18 -4 13
-12 -4 -6 -3 -8 4 -4 6 3 13 2 16 -3 5 -8 -21 -26 -34 -23 -3 0 -6 -13 -5 -29
0 -16 5 -29 12 -29 6 0 13 -3 16 -7 2 -5 2 -3 1 4 -2 7 1 15 5 18 5 3 7 15 3
27 -3 14 -2 19 6 14 7 -4 12 -1 12 8 0 8 -5 18 -10 21 -6 4 -7 12 -4 18 4 7 3
9 -1 5 -5 -5 -19 9 -32 30 -14 20 -22 30 -20 21z"/>
<path d="M2796 911 c-4 -5 -4 -15 -1 -23 7 -18 45 -42 45 -28 0 5 -5 10 -11
10 -5 0 -7 5 -4 10 4 6 1 9 -7 8 -8 -2 -12 4 -10 15 3 18 -3 23 -12 8z"/>
<path d="M1690 875 c-1 -5 -3 -18 -5 -27 -2 -10 3 -21 10 -25 8 -5 14 -12 14
-18 0 -5 4 -10 11 -11 6 -2 7 -1 0 3 -5 2 -7 9 -4 14 3 6 1 15 -4 22 -5 7 -12
21 -15 32 -2 11 -6 16 -7 10z"/>
<path d="M2003 863 c-7 -2 -13 -12 -13 -20 0 -13 -2 -14 -17 -2 -17 13 -17 12
-4 -4 15 -18 15 -18 29 0 13 17 14 17 7 -4 -4 -14 -2 -23 4 -23 6 0 10 14 9
30 -1 17 -2 30 -3 29 0 0 -6 -3 -12 -6z"/>
<path d="M642 834 c29 -15 146 -54 163 -53 22 0 -49 31 -82 35 -19 2 -48 11
-63 19 -38 19 -53 19 -18 -1z"/>
<path d="M1615 831 c-3 -12 -11 -19 -16 -16 -5 3 -6 -1 -3 -9 3 -8 -2 -28 -10
-45 -15 -29 -15 -32 3 -50 15 -15 21 -16 25 -6 2 7 -4 15 -15 18 -18 5 -18 7
7 62 13 32 23 60 20 62 -2 2 -7 -5 -11 -16z"/>
<path d="M1741 820 c-2 -19 -4 -48 -5 -63 -1 -16 3 -35 9 -43 7 -11 9 0 7 38
-4 84 -9 109 -11 68z"/>
<path d="M2062 805 c7 -16 15 -32 18 -35 3 -3 16 -21 28 -40 26 -41 29 -33 5
13 -9 18 -17 34 -16 37 0 3 -10 16 -24 30 l-24 25 13 -30z"/>
<path d="M1951 799 c0 -14 -12 -36 -26 -49 l-25 -23 0 27 c0 16 -4 25 -10 21
-6 -4 -8 -10 -5 -15 3 -5 0 -12 -6 -16 -8 -5 -8 -9 1 -14 7 -5 9 -13 4 -21 -4
-7 -9 -42 -10 -78 -2 -36 -7 -67 -11 -68 -5 -2 -8 -33 -7 -70 2 -37 -1 -72 -4
-78 -10 -16 -10 -79 1 -92 6 -9 6 -13 -1 -13 -6 0 -7 -14 -1 -41 11 -48 3
-103 -17 -120 -16 -13 -19 -39 -4 -39 6 0 10 -10 10 -22 0 -30 14 -12 16 20 3
63 4 73 12 68 5 -3 7 44 6 103 -2 79 1 114 10 127 12 16 11 20 -3 31 -10 8
-12 15 -6 20 6 5 10 35 11 68 0 71 6 126 13 140 3 6 6 15 7 22 4 26 45 72 59
66 9 -3 15 1 15 10 0 9 3 24 7 34 6 15 5 16 -9 5 -14 -11 -17 -10 -21 5 -3 12
-5 10 -6 -8z"/>
<path d="M2596 805 c4 -8 10 -15 14 -15 5 0 10 -10 12 -22 2 -12 9 -23 16 -24
7 -1 8 0 2 3 -5 2 -10 12 -10 21 -1 18 -23 52 -33 52 -4 0 -4 -7 -1 -15z"/>
<path d="M2818 795 c19 -34 52 -71 52 -59 0 6 -7 17 -15 24 -22 18 -18 32 5
20 11 -6 20 -7 20 -3 0 5 -9 14 -20 21 -14 9 -20 9 -20 1 0 -8 -6 -7 -17 2
-15 13 -15 12 -5 -6z"/>
<path d="M2890 807 c0 -4 13 -31 30 -60 16 -29 30 -47 30 -40 0 7 -13 34 -30
60 -16 26 -30 44 -30 40z"/>
<path d="M1121 769 c-19 -4 -70 -6 -113 -6 -43 1 -78 -1 -78 -5 0 -10 162 -9
215 0 23 4 33 10 25 13 -8 3 -30 2 -49 -2z"/>
<path d="M2801 775 c0 -11 79 -94 79 -84 0 3 -18 25 -40 50 -22 24 -40 40 -39
34z"/>
<path d="M1672 749 c2 -7 -2 -13 -9 -14 -6 0 -15 -4 -20 -9 -4 -5 -3 -6 3 -3
18 11 25 -21 8 -37 -13 -14 -11 -15 21 -14 27 1 35 5 35 20 0 10 -7 18 -16 18
-11 0 -13 6 -9 19 3 11 1 22 -5 26 -6 4 -9 1 -8 -6z"/>
<path d="M1562 694 c-12 -8 -22 -22 -22 -30 0 -8 -4 -14 -10 -14 -5 0 -10 6
-10 13 0 6 -9 -7 -21 -30 -12 -24 -25 -43 -31 -43 -5 0 -7 -4 -4 -8 2 -4 -13
-30 -35 -57 -40 -50 -72 -105 -62 -105 17 0 142 160 159 203 3 9 13 13 25 10
16 -5 19 -11 14 -30 -4 -16 -1 -25 10 -29 9 -4 15 -20 16 -43 l1 -36 9 40 c4
22 8 54 7 70 0 28 0 29 -7 5 -7 -24 -7 -24 -20 8 -7 18 -17 32 -22 32 -5 0 -9
5 -9 11 0 5 4 7 10 4 6 -3 7 1 4 9 -4 11 0 16 10 16 9 0 16 5 16 10 0 13 -2
13 -28 -6z"/>
<path d="M2006 701 c5 -5 23 -13 39 -17 27 -7 29 -6 16 9 -7 10 -25 17 -39 17
-16 0 -22 -4 -16 -9z"/>
<path d="M2888 673 c6 -2 12 -11 12 -18 0 -16 12 -25 39 -30 13 -2 18 1 16 13
-2 9 -4 20 -4 25 -1 4 -5 7 -10 7 -5 0 -7 -10 -3 -22 5 -21 4 -22 -11 -9 -9 7
-17 20 -17 27 0 8 -8 14 -17 13 -11 0 -13 -3 -5 -6z"/>
<path d="M2049 653 c-18 -4 -34 -44 -16 -40 6 1 15 -13 20 -30 12 -41 40 -46
31 -5 -4 15 -11 35 -15 44 -12 23 -11 28 5 28 8 0 24 -19 35 -43 23 -48 26
-61 11 -52 -5 3 -10 0 -10 -7 0 -15 35 -49 43 -42 2 3 7 -2 11 -11 3 -9 2 -13
-4 -10 -5 3 -7 0 -4 -8 2 -7 11 -14 18 -14 18 0 7 39 -16 55 -18 13 -26 38 -8
27 6 -4 10 6 9 22 0 25 -1 26 -9 8 -8 -18 -9 -17 -9 6 -1 29 -42 80 -63 78 -7
-1 -20 -3 -29 -6z"/>
<path d="M1686 601 c-7 -9 -20 -33 -27 -54 -10 -30 -17 -36 -32 -31 -17 5 -19
2 -15 -24 3 -20 0 -28 -7 -26 -11 5 -35 -57 -35 -87 0 -11 2 -11 10 1 14 22
23 5 10 -19 -12 -23 -1 -28 17 -10 9 9 8 19 -3 40 -13 25 -12 29 4 38 9 6 14
11 9 11 -4 0 -1 10 8 23 8 13 12 27 8 31 -5 5 6 6 22 4 17 -3 24 -3 18 -1 -23
8 -14 25 10 19 12 -3 16 -3 9 0 -11 5 -10 10 3 24 9 10 15 21 14 26 -3 19 1
35 9 30 5 -3 9 1 9 8 0 18 -24 16 -41 -3z"/>
<path d="M2002 588 c0 -20 -3 -41 -6 -46 -3 -5 5 -9 17 -8 24 2 25 6 4 56
l-15 34 0 -36z"/>
<path d="M1930 589 c0 -24 23 -21 28 4 2 10 -3 17 -12 17 -10 0 -16 -9 -16
-21z"/>
<path d="M2950 571 c0 -6 5 -13 10 -16 6 -3 10 -14 10 -23 0 -15 -2 -15 -11
-2 -8 12 -10 12 -7 1 2 -8 12 -15 21 -17 21 -3 21 -1 2 36 -16 30 -25 38 -25
21z"/>
<path d="M1729 550 c-1 -8 -1 -18 0 -22 0 -5 -4 -8 -10 -8 -6 0 -9 -9 -6 -20
3 -11 1 -23 -4 -26 -5 -3 -7 -9 -4 -14 3 -4 -2 -13 -10 -20 -8 -7 -15 -9 -15
-5 0 4 -6 2 -13 -4 -8 -6 -18 -7 -22 -3 -5 4 -5 1 -1 -6 6 -10 11 -10 22 -1
11 9 14 8 14 -5 0 -9 -4 -16 -10 -16 -5 0 -7 -6 -4 -13 3 -8 1 -24 -4 -38 -5
-13 -7 -31 -4 -39 3 -8 13 14 21 50 14 56 19 65 38 63 25 -3 40 25 18 33 -13
5 -13 9 1 33 11 19 13 32 5 51 -6 15 -10 19 -12 10z"/>
<path d="M2230 494 c67 -63 109 -154 116 -255 4 -62 14 -81 34 -69 8 5 10 10
4 10 -7 0 -14 7 -18 15 -5 14 -2 14 24 0 25 -13 29 -13 24 -1 -3 8 -11 17 -18
19 -12 5 -33 65 -39 112 -1 11 -6 26 -10 33 -5 6 -5 12 -2 12 7 0 -23 55 -45
83 -16 19 -104 87 -113 87 -4 0 16 -21 43 -46z"/>
<path d="M1411 414 c-41 -42 -99 -94 -128 -115 -35 -26 -50 -44 -47 -54 4 -8
1 -15 -6 -15 -6 0 -8 -5 -4 -11 3 -6 2 -14 -4 -18 -6 -4 -13 -21 -17 -39 -4
-27 -2 -34 19 -43 26 -12 43 -39 25 -39 -6 0 -7 -4 -4 -10 3 -5 2 -10 -3 -10
-8 0 -9 -19 -3 -52 0 -5 11 -8 24 -7 l22 0 -22 9 c-13 5 -23 12 -23 14 0 3 14
32 30 64 17 33 30 62 30 66 0 16 -39 4 -45 -14 -7 -23 -16 -25 -32 -9 -8 8 -5
25 13 63 13 28 24 58 24 66 1 19 78 73 92 64 6 -4 8 -3 5 3 -4 6 16 33 44 60
45 42 96 103 87 103 -2 0 -36 -34 -77 -76z"/>
<path d="M1353 473 c8 -13 -17 -36 -28 -25 -4 4 -3 -2 2 -13 12 -24 6 -45 -12
-45 -7 0 -16 6 -19 13 -3 6 -3 2 0 -10 4 -19 2 -22 -13 -17 -17 5 -17 5 0 -6
14 -9 23 -7 47 13 21 18 26 27 18 35 -9 9 -7 17 6 31 13 14 14 21 5 27 -7 4
-10 3 -6 -3z"/>
<path d="M2036 452 c-3 -5 5 -8 17 -8 17 1 23 -6 25 -26 2 -16 8 -28 13 -28
11 0 11 0 -2 39 -10 30 -41 43 -53 23z"/>
<path d="M2198 435 c-3 -14 -2 -25 1 -26 3 0 14 -2 23 -4 16 -3 16 -1 3 26
-19 35 -21 36 -27 4z"/>
<path d="M2013 440 c2 -8 7 -25 11 -37 6 -19 4 -23 -13 -23 -22 0 -28 -14 -11
-25 5 -3 18 3 30 15 11 11 25 20 30 20 7 0 7 7 0 20 -6 11 -15 18 -20 15 -5
-3 -14 3 -20 12 -7 12 -10 13 -7 3z"/>
<path d="M1695 298 c-21 -62 -41 -118 -46 -123 -4 -6 -9 -22 -11 -35 -2 -14
-6 -29 -9 -35 -4 -5 -9 -23 -13 -40 -4 -16 -10 -39 -13 -50 -5 -17 -4 -18 10
-6 9 7 15 17 12 20 -2 4 7 29 21 55 14 25 22 51 19 56 -8 13 65 231 75 225 10
-6 18 16 13 33 -10 27 -22 7 -58 -100z"/>
<path d="M2910 392 c0 -5 7 -15 15 -22 8 -7 12 -17 8 -22 -3 -6 -14 -1 -25 13
-18 22 -18 22 -9 2 15 -29 27 -35 39 -20 7 8 5 19 -9 36 -10 13 -19 19 -19 13z"/>
<path d="M2121 374 c-1 -12 6 -24 14 -28 8 -3 15 -11 15 -18 0 -10 -2 -10 -8
-1 -4 6 -7 -6 -7 -29 0 -38 0 -39 10 -15 7 18 15 23 24 18 11 -7 11 -9 0 -13
-8 -3 -12 -8 -9 -11 3 -3 12 -2 20 4 13 8 13 11 -2 23 -10 7 -18 20 -18 29 0
9 -6 20 -14 24 -7 4 -16 15 -19 23 -4 10 -6 8 -6 -6z"/>
<path d="M2237 372 c-20 -2 -27 -8 -25 -20 2 -9 11 -17 20 -17 29 0 43 -21 28
-40 -9 -11 -10 -19 -3 -26 7 -7 14 -5 23 6 10 12 10 15 0 15 -9 0 -8 6 3 23
13 21 13 25 -2 43 -11 13 -25 18 -44 16z"/>
<path d="M1260 350 c0 -5 -7 -10 -16 -10 -8 0 -12 -4 -9 -10 3 -5 0 -10 -8
-10 -7 0 -24 -15 -37 -32 -17 -25 -19 -29 -4 -16 10 9 25 18 33 20 13 3 71 55
71 64 0 2 -7 4 -15 4 -8 0 -15 -4 -15 -10z"/>
<path d="M2800 348 c0 -10 5 -18 10 -18 6 0 10 -5 10 -11 0 -6 -7 -8 -17 -5
-14 6 -14 4 2 -16 11 -13 20 -24 21 -26 1 -2 1 10 0 25 -2 34 -25 79 -26 51z"/>
<path d="M1604 323 c-3 -10 -10 -28 -15 -41 -12 -31 -12 -30 14 -34 12 -2 21
-9 20 -16 -4 -17 21 -10 28 8 4 8 1 21 -5 29 -6 8 -11 25 -11 39 0 30 -23 41
-31 15z"/>
<path d="M918 294 c-76 -38 -87 -50 -29 -29 59 20 115 51 105 57 -5 3 -39 -9
-76 -28z"/>
<path d="M2202 308 c2 -12 9 -23 16 -26 18 -6 15 35 -4 42 -11 4 -15 0 -12
-16z"/>
<path d="M1940 303 c0 -5 5 -15 10 -23 9 -13 11 -13 19 0 5 8 7 18 5 22 -6 10
-34 11 -34 1z"/>
<path d="M1557 270 c-10 -12 -15 -25 -12 -30 4 -6 2 -10 -3 -10 -6 0 -17 -21
-26 -47 -13 -37 -13 -48 -4 -55 10 -6 9 -8 -3 -8 -9 0 -20 -7 -23 -16 -4 -12
-2 -15 9 -10 17 6 19 -3 6 -38 l-10 -25 -43 21 c-24 11 -45 25 -47 30 -2 6
-12 -9 -22 -32 -15 -34 -22 -40 -33 -31 -10 9 -15 8 -20 -4 -4 -12 2 -15 30
-15 23 0 33 4 28 11 -4 8 0 7 15 -1 12 -6 30 -9 39 -7 13 3 11 6 -10 15 -31
13 -46 32 -24 32 23 0 70 -23 79 -38 7 -11 13 -9 28 7 11 12 17 26 13 33 -4 6
-3 8 3 5 14 -9 23 39 10 52 -8 8 -7 11 1 11 21 0 13 18 -10 23 -16 3 -13 5 12
6 l35 3 -30 13 c-21 10 -25 14 -11 15 15 0 16 3 6 15 -10 13 -9 15 9 15 11 0
20 3 20 8 -1 4 0 9 1 12 1 5 6 60 5 60 0 0 -8 -9 -18 -20z"/>
<path d="M1994 265 c-4 -10 -13 -13 -26 -9 -15 4 -19 2 -16 -7 3 -8 10 -14 16
-13 7 1 23 2 36 3 19 1 23 5 19 21 -6 24 -21 26 -29 5z"/>
<path d="M700 190 c-160 -74 -285 -117 -379 -130 -74 -10 -136 -6 -147 11 -3
5 -15 9 -27 9 -11 0 -34 12 -49 27 -15 15 -28 21 -28 15 0 -6 17 -23 38 -36
32 -21 58 -29 170 -52 15 -3 21 -1 17 6 -4 6 9 9 34 8 23 -1 44 2 48 5 3 4 14
0 24 -9 16 -15 17 -14 12 4 -6 25 35 39 44 15 5 -13 8 -12 14 5 5 14 14 20 24
16 8 -4 23 0 32 7 9 8 19 13 22 13 11 -2 35 7 85 32 47 25 84 26 70 3 -4 -8
-3 -9 4 -5 7 4 12 14 12 22 0 8 13 20 29 25 16 6 32 17 35 26 4 8 13 13 21 9
9 -3 15 0 15 8 0 8 6 17 13 19 6 3 8 5 2 5 -5 0 -66 -26 -135 -58z"/>
<path d="M1753 215 c-13 -21 -18 -37 -12 -41 6 -3 3 -12 -8 -21 -17 -14 -17
-14 2 -10 11 3 29 8 40 12 15 5 16 4 6 -3 -7 -5 -11 -14 -7 -20 3 -5 -2 -13
-11 -16 -9 -4 -20 -2 -23 5 -5 7 -13 3 -23 -12 -14 -19 -18 -20 -34 -9 -17 13
-17 13 -1 -5 17 -18 18 -18 58 0 48 22 65 47 51 74 -11 20 8 48 24 33 4 -4 0
5 -10 21 -9 15 -20 27 -24 27 -3 -1 -16 -16 -28 -35z"/>
<path d="M1 218 c-1 -16 3 -28 7 -28 5 0 14 -11 20 -25 6 -14 17 -25 23 -25 8
0 7 5 -2 16 -7 9 -21 33 -30 53 -17 35 -17 35 -18 9z"/>
<path d="M2030 210 c-13 -9 -13 -10 1 -10 8 0 20 -12 27 -27 l12 -28 -6 30
c-7 38 -15 47 -34 35z"/>
<path d="M1582 168 c-18 -39 -18 -44 -4 -56 13 -10 18 -9 26 5 6 11 5 18 -2
21 -7 2 -12 8 -12 13 0 4 6 6 14 3 9 -3 18 6 25 27 9 27 9 30 -4 19 -8 -7 -12
-17 -8 -23 3 -6 1 -7 -5 -3 -6 4 -9 13 -5 21 13 34 -8 12 -25 -27z"/>
<path d="M1992 165 c-8 -10 -9 -15 -2 -15 6 0 8 -5 4 -12 -5 -7 -3 -8 6 -3 7
4 15 3 19 -3 4 -6 11 -4 20 5 11 12 11 14 0 12 -28 -3 -38 1 -33 16 8 19 3 19
-14 0z"/>
<path d="M7 155 c6 -11 8 -26 6 -33 -6 -15 16 -44 27 -37 5 3 11 1 15 -5 3 -5
1 -10 -6 -10 -7 0 7 -13 29 -30 41 -30 75 -43 38 -15 -25 19 -8 20 19 2 34
-23 53 -27 59 -12 3 8 0 17 -6 21 -7 4 -8 3 -4 -4 10 -17 1 -15 -45 8 -22 12
-44 18 -49 15 -5 -3 -12 0 -16 6 -5 8 -3 9 7 4 8 -4 2 5 -13 22 -16 16 -28 34
-28 39 0 6 -10 19 -21 30 -22 19 -22 19 -12 -1z"/>
<path d="M2390 143 c7 -15 7 -23 1 -23 -6 0 -13 -11 -17 -24 -3 -13 -16 -29
-29 -36 -13 -7 -26 -19 -29 -27 -4 -9 -2 -11 7 -7 8 5 7 2 -2 -9 -11 -14 -11
-17 1 -17 7 0 22 13 31 30 10 17 23 30 28 30 5 0 9 6 7 13 -1 6 3 22 10 33 9
17 8 25 -4 40 -14 18 -15 18 -4 -3z"/>
<path d="M913 120 c-13 -5 -23 -15 -23 -22 0 -9 -3 -9 -10 2 -5 8 -10 10 -10
4 0 -11 -62 -44 -85 -44 -7 0 -17 -5 -21 -12 -4 -6 -3 -8 2 -5 6 3 16 2 24 -3
9 -5 19 -1 30 13 16 19 20 20 35 7 16 -13 19 -13 23 -1 3 8 19 27 36 43 33 30
33 31 -1 18z"/>
<path d="M972 115 c-8 -10 -9 -15 -2 -15 6 0 8 -4 5 -10 -3 -5 -2 -10 4 -10
16 0 22 18 9 23 -8 3 -6 6 5 6 10 1 15 6 12 11 -8 14 -18 12 -33 -5z"/>
<path d="M2000 83 c0 -24 7 -28 28 -15 16 11 6 39 -13 39 -9 0 -15 -10 -15
-24z"/>
<path d="M1823 71 c2 -26 -4 -37 -23 -50 -20 -13 -23 -13 -15 -1 5 8 10 20 11
27 3 16 -24 25 -32 11 -5 -7 -2 -8 6 -3 10 6 12 1 7 -23 -6 -29 -4 -32 18 -30
14 1 25 8 25 15 0 18 17 16 28 -3 5 -10 14 -14 21 -9 9 5 7 11 -8 21 -11 8
-25 29 -30 47 l-10 32 2 -34z"/>
<path d="M1190 75 c-7 -9 -6 -16 4 -24 12 -10 17 -8 25 8 6 11 11 21 11 24 0
9 -31 3 -40 -8z"/>
<path d="M2421 84 c-1 -16 38 -54 56 -54 9 0 25 -8 35 -17 17 -15 18 -15 13
-1 -4 9 -20 22 -36 28 -16 7 -29 16 -29 21 0 5 -6 9 -14 9 -8 0 -17 6 -19 13
-3 6 -6 7 -6 1z"/>
<path d="M1901 68 c-1 -9 -5 -20 -11 -23 -6 -4 -7 1 -4 12 5 15 4 16 -5 3 -15
-21 -14 -30 5 -30 9 0 23 -8 31 -17 8 -10 11 -12 7 -4 -4 8 -11 28 -15 45 -4
17 -7 23 -8 14z"/>
<path d="M2187 23 c4 -16 13 -23 29 -23 13 0 24 4 24 10 0 5 7 7 15 4 9 -4 15
0 15 10 0 20 -5 20 -36 0 -23 -16 -26 -16 -39 2 -13 18 -14 18 -8 -3z"/>
</g>
</svg>
